<?xml version="1.0" encoding="UTF-8"?>
<svg xmlns="http://www.w3.org/2000/svg" xmlns:xlink="http://www.w3.org/1999/xlink" width="280" height="155" viewBox="0 0 280 155">
<path fill="none" stroke-width="1.2" stroke-linecap="butt" stroke-linejoin="round" stroke="rgb(0%, 0%, 0%)" stroke-opacity="1" stroke-miterlimit="10" d="M 352.410156 263.488281 L 387.210938 246.730469 " transform="matrix(1, 0, 0, -1, -182, 297)"/>
<path fill="none" stroke-width="1.2" stroke-linecap="butt" stroke-linejoin="round" stroke="rgb(0%, 0%, 0%)" stroke-opacity="1" stroke-miterlimit="10" d="M 390.605469 257.730469 L 352.410156 263.488281 " transform="matrix(1, 0, 0, -1, -182, 297)"/>
<path fill="none" stroke-width="1.2" stroke-linecap="butt" stroke-linejoin="round" stroke="rgb(0%, 0%, 0%)" stroke-opacity="1" stroke-miterlimit="10" d="M 352.410156 263.488281 L 390.605469 269.246094 " transform="matrix(1, 0, 0, -1, -182, 297)"/>
<path fill="none" stroke-width="1.2" stroke-linecap="butt" stroke-linejoin="round" stroke="rgb(0%, 0%, 0%)" stroke-opacity="1" stroke-miterlimit="10" d="M 387.210938 280.25 L 352.410156 263.488281 " transform="matrix(1, 0, 0, -1, -182, 297)"/>
<path fill-rule="evenodd" fill="rgb(60%, 62.4%, 62%)" fill-opacity="1" d="M 198.410156 6.898438 C 212.578125 21.8125 212.578125 45.210938 198.410156 60.121094 C 215.210938 67.109375 248.808594 67.109375 265.609375 55.910156 C 282.410156 44.710938 282.410156 22.3125 265.609375 11.109375 C 248.808594 -0.0898438 215.210938 -0.0898438 198.410156 6.898438 Z M 198.410156 6.898438 "/>
<path fill="none" stroke-width="2.4" stroke-linecap="butt" stroke-linejoin="round" stroke="rgb(38.4%, 40%, 39.6%)" stroke-opacity="1" stroke-dasharray="4" stroke-miterlimit="10" d="M 380.410156 290.101562 C 394.582031 275.1875 394.582031 251.789062 380.410156 236.878906 " transform="matrix(1, 0, 0, -1, -182, 297)"/>
<path fill="none" stroke-width="2.4" stroke-linecap="butt" stroke-linejoin="round" stroke="rgb(38.4%, 40%, 39.6%)" stroke-opacity="1" stroke-miterlimit="10" d="M 380.410156 290.101562 C 397.210938 297.089844 430.808594 297.089844 447.609375 285.890625 C 464.410156 274.6875 464.410156 252.289062 447.609375 241.089844 C 430.808594 229.890625 397.210938 229.890625 380.410156 236.878906 " transform="matrix(1, 0, 0, -1, -182, 297)"/>
<path fill-rule="evenodd" fill="rgb(0%, 0%, 0%)" fill-opacity="1" d="M 175.808594 33.511719 C 175.808594 26.3125 165.007812 26.3125 165.007812 33.511719 C 165.007812 40.710938 175.808594 40.710938 175.808594 33.511719 Z M 175.808594 33.511719 "/>
<path fill="none" stroke-width="1.2" stroke-linecap="butt" stroke-linejoin="round" stroke="rgb(0%, 0%, 0%)" stroke-opacity="1" stroke-miterlimit="10" d="M 380.410156 290.101562 L 352.410156 263.488281 " transform="matrix(1, 0, 0, -1, -182, 297)"/>
<path fill="none" stroke-width="1.2" stroke-linecap="butt" stroke-linejoin="round" stroke="rgb(0%, 0%, 0%)" stroke-opacity="1" stroke-miterlimit="10" d="M 380.410156 236.878906 L 352.410156 263.488281 " transform="matrix(1, 0, 0, -1, -182, 297)"/>
<path fill="none" stroke-width="2.4" stroke-linecap="butt" stroke-linejoin="round" stroke="rgb(94.9%, 58%, 0%)" stroke-opacity="1" stroke-dasharray="4" stroke-miterlimit="10" d="M 292.410156 263.488281 C 312.410156 275.488281 332.410156 275.488281 352.410156 263.488281 " transform="matrix(1, 0, 0, -1, -182, 297)"/>
<path fill="none" stroke-width="1.2" stroke-linecap="butt" stroke-linejoin="round" stroke="rgb(0%, 0%, 0%)" stroke-opacity="1" stroke-miterlimit="10" d="M 292.410156 263.488281 L 257.605469 246.730469 " transform="matrix(1, 0, 0, -1, -182, 297)"/>
<path fill="none" stroke-width="1.2" stroke-linecap="butt" stroke-linejoin="round" stroke="rgb(0%, 0%, 0%)" stroke-opacity="1" stroke-miterlimit="10" d="M 254.210938 257.730469 L 292.410156 263.488281 " transform="matrix(1, 0, 0, -1, -182, 297)"/>
<path fill="none" stroke-width="1.2" stroke-linecap="butt" stroke-linejoin="round" stroke="rgb(0%, 0%, 0%)" stroke-opacity="1" stroke-miterlimit="10" d="M 292.410156 263.488281 L 254.210938 269.246094 " transform="matrix(1, 0, 0, -1, -182, 297)"/>
<path fill="none" stroke-width="1.2" stroke-linecap="butt" stroke-linejoin="round" stroke="rgb(0%, 0%, 0%)" stroke-opacity="1" stroke-miterlimit="10" d="M 257.605469 280.25 L 292.410156 263.488281 " transform="matrix(1, 0, 0, -1, -182, 297)"/>
<path fill-rule="evenodd" fill="rgb(60%, 62.4%, 62%)" fill-opacity="1" d="M 82.410156 6.898438 C 68.238281 21.8125 68.238281 45.210938 82.410156 60.121094 C 65.609375 67.109375 32.007812 67.109375 15.207031 55.910156 C -1.59375 44.710938 -1.59375 22.3125 15.207031 11.109375 C 32.007812 -0.0898438 65.609375 -0.0898438 82.40625 6.898438 Z M 82.410156 6.898438 "/>
<path fill="none" stroke-width="2.4" stroke-linecap="butt" stroke-linejoin="round" stroke="rgb(38.4%, 40%, 39.6%)" stroke-opacity="1" stroke-dasharray="4" stroke-miterlimit="10" d="M 264.410156 290.101562 C 250.238281 275.1875 250.238281 251.789062 264.410156 236.878906 " transform="matrix(1, 0, 0, -1, -182, 297)"/>
<path fill="none" stroke-width="2.4" stroke-linecap="butt" stroke-linejoin="round" stroke="rgb(38.4%, 40%, 39.6%)" stroke-opacity="1" stroke-miterlimit="10" d="M 264.40625 290.101562 C 247.609375 297.089844 214.007812 297.089844 197.207031 285.890625 C 180.40625 274.6875 180.40625 252.289062 197.207031 241.089844 C 214.007812 229.890625 247.609375 229.890625 264.40625 236.878906 " transform="matrix(1, 0, 0, -1, -182, 297)"/>
<path fill-rule="evenodd" fill="rgb(0%, 0%, 0%)" fill-opacity="1" d="M 115.808594 33.511719 C 115.808594 26.3125 105.007812 26.3125 105.007812 33.511719 C 105.007812 40.710938 115.808594 40.710938 115.808594 33.511719 Z M 115.808594 33.511719 "/>
<path fill="none" stroke-width="1.2" stroke-linecap="butt" stroke-linejoin="round" stroke="rgb(0%, 0%, 0%)" stroke-opacity="1" stroke-miterlimit="10" d="M 264.40625 290.101562 L 292.410156 263.488281 " transform="matrix(1, 0, 0, -1, -182, 297)"/>
<path fill="none" stroke-width="1.2" stroke-linecap="butt" stroke-linejoin="round" stroke="rgb(0%, 0%, 0%)" stroke-opacity="1" stroke-miterlimit="10" d="M 264.40625 236.878906 L 292.410156 263.488281 " transform="matrix(1, 0, 0, -1, -182, 297)"/>
<path fill="none" stroke-width="2.4" stroke-linecap="butt" stroke-linejoin="round" stroke="rgb(89.8%, 19.2%, 22%)" stroke-opacity="1" stroke-miterlimit="10" d="M 292.410156 263.488281 L 264.410156 236.878906 " transform="matrix(1, 0, 0, -1, -182, 297)"/>
<path fill="none" stroke-width="2.4" stroke-linecap="butt" stroke-linejoin="round" stroke="rgb(89.8%, 19.2%, 22%)" stroke-opacity="1" stroke-miterlimit="10" d="M 352.410156 263.488281 L 380.410156 236.878906 " transform="matrix(1, 0, 0, -1, -182, 297)"/>
<path fill-rule="evenodd" fill="rgb(100%, 100%, 100%)" fill-opacity="1" stroke-width="2.4" stroke-linecap="butt" stroke-linejoin="round" stroke="rgb(38.4%, 40%, 39.6%)" stroke-opacity="1" stroke-dasharray="4" stroke-miterlimit="10" d="M 233.410156 251.734375 C 233.410156 256.152344 229.828125 259.734375 225.410156 259.734375 C 220.992188 259.734375 217.410156 256.152344 217.410156 251.734375 C 217.410156 247.316406 220.992188 243.734375 225.410156 243.734375 C 229.828125 243.734375 233.410156 247.316406 233.410156 251.734375 Z M 233.410156 251.734375 " transform="matrix(1, 0, 0, -1, -182, 297)"/>
<path fill-rule="evenodd" fill="rgb(100%, 100%, 100%)" fill-opacity="1" stroke-width="1.2" stroke-linecap="butt" stroke-linejoin="round" stroke="rgb(0%, 0%, 0%)" stroke-opacity="1" stroke-miterlimit="10" d="M 217.832031 254.296875 L 225.410156 251.734375 " transform="matrix(1, 0, 0, -1, -182, 297)"/>
<path fill-rule="evenodd" fill="rgb(100%, 100%, 100%)" fill-opacity="1" stroke-width="1.2" stroke-linecap="butt" stroke-linejoin="round" stroke="rgb(0%, 0%, 0%)" stroke-opacity="1" stroke-miterlimit="10" d="M 225.410156 251.734375 L 222.550781 259.207031 " transform="matrix(1, 0, 0, -1, -182, 297)"/>
<path fill-rule="evenodd" fill="rgb(100%, 100%, 100%)" fill-opacity="1" stroke-width="1.2" stroke-linecap="butt" stroke-linejoin="round" stroke="rgb(0%, 0%, 0%)" stroke-opacity="1" stroke-miterlimit="10" d="M 225.410156 251.734375 L 229.902344 258.351562 " transform="matrix(1, 0, 0, -1, -182, 297)"/>
<path fill-rule="evenodd" fill="rgb(100%, 100%, 100%)" fill-opacity="1" stroke-width="1.2" stroke-linecap="butt" stroke-linejoin="round" stroke="rgb(89.8%, 19.2%, 22%)" stroke-opacity="1" stroke-miterlimit="10" d="M 225.410156 251.734375 L 233.035156 249.320312 " transform="matrix(1, 0, 0, -1, -182, 297)"/>
<path fill-rule="evenodd" fill="rgb(100%, 100%, 100%)" fill-opacity="1" stroke-width="1.2" stroke-linecap="butt" stroke-linejoin="round" stroke="rgb(0%, 0%, 0%)" stroke-opacity="1" stroke-miterlimit="10" d="M 225.410156 251.734375 L 227.40625 243.988281 " transform="matrix(1, 0, 0, -1, -182, 297)"/>
<path fill-rule="evenodd" fill="rgb(100%, 100%, 100%)" fill-opacity="1" stroke-width="1.2" stroke-linecap="butt" stroke-linejoin="round" stroke="rgb(0%, 0%, 0%)" stroke-opacity="1" stroke-miterlimit="10" d="M 225.410156 251.734375 L 219.230469 246.652344 " transform="matrix(1, 0, 0, -1, -182, 297)"/>
<path fill-rule="evenodd" fill="rgb(60%, 62.4%, 62%)" fill-opacity="1" stroke-width="1.2" stroke-linecap="butt" stroke-linejoin="round" stroke="rgb(38.4%, 40%, 39.6%)" stroke-opacity="1" stroke-miterlimit="10" d="M 407.742188 188.734375 C 406.882812 176.472656 397.914062 164.34375 389.871094 155.046875 C 381.824219 145.753906 374.703125 139.292969 365.804688 144.703125 C 356.902344 150.109375 346.226562 167.386719 332.644531 168.046875 C 319.066406 168.710938 302.578125 152.757812 287.679688 153.222656 C 272.777344 153.6875 259.464844 170.570312 255.050781 182.042969 C 250.636719 193.515625 255.121094 199.578125 263.558594 206.234375 C 272 212.894531 284.398438 220.144531 296.460938 220.601562 C 308.527344 221.0625 320.261719 214.730469 336.480469 214.460938 C 352.699219 214.195312 373.402344 219.992188 387.378906 216.691406 C 401.351562 213.394531 408.601562 200.996094 407.742188 188.734375 Z M 407.742188 188.734375 " transform="matrix(1, 0, 0, -1, -182, 297)"/>
<path fill-rule="evenodd" fill="rgb(100%, 100%, 100%)" fill-opacity="1" stroke-width="2.4" stroke-linecap="butt" stroke-linejoin="round" stroke="rgb(38.4%, 40%, 39.6%)" stroke-opacity="1" stroke-dasharray="4" stroke-miterlimit="10" d="M 436.738281 246.484375 C 436.738281 250.902344 433.15625 254.484375 428.738281 254.484375 C 424.320312 254.484375 420.738281 250.902344 420.738281 246.484375 C 420.738281 242.066406 424.320312 238.484375 428.738281 238.484375 C 433.15625 238.484375 436.738281 242.066406 436.738281 246.484375 Z M 436.738281 246.484375 " transform="matrix(1, 0, 0, -1, -182, 297)"/>
<path fill-rule="evenodd" fill="rgb(100%, 100%, 100%)" fill-opacity="1" stroke-width="1.2" stroke-linecap="butt" stroke-linejoin="round" stroke="rgb(0%, 0%, 0%)" stroke-opacity="1" stroke-miterlimit="10" d="M 421.160156 249.050781 L 428.738281 246.484375 " transform="matrix(1, 0, 0, -1, -182, 297)"/>
<path fill-rule="evenodd" fill="rgb(100%, 100%, 100%)" fill-opacity="1" stroke-width="1.2" stroke-linecap="butt" stroke-linejoin="round" stroke="rgb(0%, 0%, 0%)" stroke-opacity="1" stroke-miterlimit="10" d="M 428.738281 246.484375 L 425.882812 253.957031 " transform="matrix(1, 0, 0, -1, -182, 297)"/>
<path fill-rule="evenodd" fill="rgb(100%, 100%, 100%)" fill-opacity="1" stroke-width="1.2" stroke-linecap="butt" stroke-linejoin="round" stroke="rgb(0%, 0%, 0%)" stroke-opacity="1" stroke-miterlimit="10" d="M 428.738281 246.484375 L 433.234375 253.105469 " transform="matrix(1, 0, 0, -1, -182, 297)"/>
<path fill-rule="evenodd" fill="rgb(100%, 100%, 100%)" fill-opacity="1" stroke-width="1.2" stroke-linecap="butt" stroke-linejoin="round" stroke="rgb(89.8%, 19.2%, 22%)" stroke-opacity="1" stroke-miterlimit="10" d="M 428.738281 246.484375 L 436.367188 244.074219 " transform="matrix(1, 0, 0, -1, -182, 297)"/>
<path fill-rule="evenodd" fill="rgb(100%, 100%, 100%)" fill-opacity="1" stroke-width="1.2" stroke-linecap="butt" stroke-linejoin="round" stroke="rgb(0%, 0%, 0%)" stroke-opacity="1" stroke-miterlimit="10" d="M 428.738281 246.484375 L 430.734375 238.738281 " transform="matrix(1, 0, 0, -1, -182, 297)"/>
<path fill-rule="evenodd" fill="rgb(100%, 100%, 100%)" fill-opacity="1" stroke-width="1.2" stroke-linecap="butt" stroke-linejoin="round" stroke="rgb(0%, 0%, 0%)" stroke-opacity="1" stroke-miterlimit="10" d="M 428.738281 246.484375 L 422.558594 241.402344 " transform="matrix(1, 0, 0, -1, -182, 297)"/>
<path fill-rule="evenodd" fill="rgb(100%, 100%, 100%)" fill-opacity="1" stroke-width="2.4" stroke-linecap="butt" stroke-linejoin="round" stroke="rgb(38.4%, 40%, 39.6%)" stroke-opacity="1" stroke-dasharray="4" stroke-miterlimit="10" d="M 397.660156 202.054688 C 397.003906 206.425781 392.929688 209.4375 388.5625 208.78125 C 384.191406 208.125 381.179688 204.054688 381.835938 199.683594 C 382.488281 195.316406 386.5625 192.304688 390.933594 192.957031 C 395.300781 193.613281 398.3125 197.683594 397.660156 202.054688 Z M 397.660156 202.054688 " transform="matrix(1, 0, 0, -1, -182, 297)"/>
<path fill-rule="evenodd" fill="rgb(100%, 100%, 100%)" fill-opacity="1" stroke-width="1.2" stroke-linecap="butt" stroke-linejoin="round" stroke="rgb(0%, 0%, 0%)" stroke-opacity="1" stroke-miterlimit="10" d="M 381.871094 202.28125 L 389.746094 200.871094 " transform="matrix(1, 0, 0, -1, -182, 297)"/>
<path fill-rule="evenodd" fill="rgb(100%, 100%, 100%)" fill-opacity="1" stroke-width="1.2" stroke-linecap="butt" stroke-linejoin="round" stroke="rgb(0%, 0%, 0%)" stroke-opacity="1" stroke-miterlimit="10" d="M 389.746094 200.871094 L 385.816406 207.835938 " transform="matrix(1, 0, 0, -1, -182, 297)"/>
<path fill-rule="evenodd" fill="rgb(100%, 100%, 100%)" fill-opacity="1" stroke-width="1.2" stroke-linecap="butt" stroke-linejoin="round" stroke="rgb(0%, 0%, 0%)" stroke-opacity="1" stroke-miterlimit="10" d="M 389.746094 200.871094 L 393.210938 208.082031 " transform="matrix(1, 0, 0, -1, -182, 297)"/>
<path fill-rule="evenodd" fill="rgb(100%, 100%, 100%)" fill-opacity="1" stroke-width="1.2" stroke-linecap="butt" stroke-linejoin="round" stroke="rgb(89.8%, 19.2%, 22%)" stroke-opacity="1" stroke-miterlimit="10" d="M 389.746094 200.871094 L 397.648438 199.613281 " transform="matrix(1, 0, 0, -1, -182, 297)"/>
<path fill-rule="evenodd" fill="rgb(100%, 100%, 100%)" fill-opacity="1" stroke-width="1.2" stroke-linecap="butt" stroke-linejoin="round" stroke="rgb(0%, 0%, 0%)" stroke-opacity="1" stroke-miterlimit="10" d="M 389.746094 200.871094 L 392.871094 193.503906 " transform="matrix(1, 0, 0, -1, -182, 297)"/>
<path fill-rule="evenodd" fill="rgb(100%, 100%, 100%)" fill-opacity="1" stroke-width="1.2" stroke-linecap="butt" stroke-linejoin="round" stroke="rgb(0%, 0%, 0%)" stroke-opacity="1" stroke-miterlimit="10" d="M 389.746094 200.871094 L 384.390625 194.929688 " transform="matrix(1, 0, 0, -1, -182, 297)"/>
<path fill-rule="evenodd" fill="rgb(100%, 100%, 100%)" fill-opacity="1" stroke-width="2.4" stroke-linecap="butt" stroke-linejoin="round" stroke="rgb(38.4%, 40%, 39.6%)" stroke-opacity="1" stroke-dasharray="4" stroke-miterlimit="10" d="M 295.074219 167.980469 C 294.417969 172.351562 290.347656 175.363281 285.976562 174.707031 C 281.609375 174.054688 278.597656 169.980469 279.25 165.613281 C 279.90625 161.242188 283.976562 158.230469 288.347656 158.886719 C 292.714844 159.539062 295.726562 163.613281 295.074219 167.980469 Z M 295.074219 167.980469 " transform="matrix(1, 0, 0, -1, -182, 297)"/>
<path fill-rule="evenodd" fill="rgb(100%, 100%, 100%)" fill-opacity="1" stroke-width="1.2" stroke-linecap="butt" stroke-linejoin="round" stroke="rgb(0%, 0%, 0%)" stroke-opacity="1" stroke-miterlimit="10" d="M 279.289062 168.210938 L 287.160156 166.796875 " transform="matrix(1, 0, 0, -1, -182, 297)"/>
<path fill-rule="evenodd" fill="rgb(100%, 100%, 100%)" fill-opacity="1" stroke-width="1.2" stroke-linecap="butt" stroke-linejoin="round" stroke="rgb(0%, 0%, 0%)" stroke-opacity="1" stroke-miterlimit="10" d="M 287.160156 166.796875 L 283.230469 173.765625 " transform="matrix(1, 0, 0, -1, -182, 297)"/>
<path fill-rule="evenodd" fill="rgb(100%, 100%, 100%)" fill-opacity="1" stroke-width="1.2" stroke-linecap="butt" stroke-linejoin="round" stroke="rgb(0%, 0%, 0%)" stroke-opacity="1" stroke-miterlimit="10" d="M 287.160156 166.796875 L 290.625 174.007812 " transform="matrix(1, 0, 0, -1, -182, 297)"/>
<path fill-rule="evenodd" fill="rgb(100%, 100%, 100%)" fill-opacity="1" stroke-width="1.2" stroke-linecap="butt" stroke-linejoin="round" stroke="rgb(89.8%, 19.2%, 22%)" stroke-opacity="1" stroke-miterlimit="10" d="M 287.160156 166.796875 L 295.0625 165.542969 " transform="matrix(1, 0, 0, -1, -182, 297)"/>
<path fill-rule="evenodd" fill="rgb(100%, 100%, 100%)" fill-opacity="1" stroke-width="1.2" stroke-linecap="butt" stroke-linejoin="round" stroke="rgb(0%, 0%, 0%)" stroke-opacity="1" stroke-miterlimit="10" d="M 287.160156 166.796875 L 290.285156 159.433594 " transform="matrix(1, 0, 0, -1, -182, 297)"/>
<path fill-rule="evenodd" fill="rgb(100%, 100%, 100%)" fill-opacity="1" stroke-width="1.2" stroke-linecap="butt" stroke-linejoin="round" stroke="rgb(0%, 0%, 0%)" stroke-opacity="1" stroke-miterlimit="10" d="M 287.160156 166.796875 L 281.804688 160.855469 " transform="matrix(1, 0, 0, -1, -182, 297)"/>
<path fill-rule="evenodd" fill="rgb(100%, 100%, 100%)" fill-opacity="1" stroke-width="2.4" stroke-linecap="butt" stroke-linejoin="round" stroke="rgb(38.4%, 40%, 39.6%)" stroke-opacity="1" stroke-dasharray="4" stroke-miterlimit="10" d="M 379.847656 158.941406 C 379.195312 163.308594 375.121094 166.320312 370.753906 165.667969 C 366.382812 165.011719 363.371094 160.941406 364.023438 156.570312 C 364.679688 152.203125 368.753906 149.191406 373.121094 149.84375 C 377.492188 150.5 380.503906 154.570312 379.847656 158.941406 Z M 379.847656 158.941406 " transform="matrix(1, 0, 0, -1, -182, 297)"/>
<path fill-rule="evenodd" fill="rgb(100%, 100%, 100%)" fill-opacity="1" stroke-width="1.2" stroke-linecap="butt" stroke-linejoin="round" stroke="rgb(0%, 0%, 0%)" stroke-opacity="1" stroke-miterlimit="10" d="M 364.0625 159.167969 L 371.9375 157.757812 " transform="matrix(1, 0, 0, -1, -182, 297)"/>
<path fill-rule="evenodd" fill="rgb(100%, 100%, 100%)" fill-opacity="1" stroke-width="1.2" stroke-linecap="butt" stroke-linejoin="round" stroke="rgb(0%, 0%, 0%)" stroke-opacity="1" stroke-miterlimit="10" d="M 371.9375 157.757812 L 368.003906 164.722656 " transform="matrix(1, 0, 0, -1, -182, 297)"/>
<path fill-rule="evenodd" fill="rgb(100%, 100%, 100%)" fill-opacity="1" stroke-width="1.2" stroke-linecap="butt" stroke-linejoin="round" stroke="rgb(0%, 0%, 0%)" stroke-opacity="1" stroke-miterlimit="10" d="M 371.9375 157.757812 L 375.402344 164.964844 " transform="matrix(1, 0, 0, -1, -182, 297)"/>
<path fill-rule="evenodd" fill="rgb(100%, 100%, 100%)" fill-opacity="1" stroke-width="1.2" stroke-linecap="butt" stroke-linejoin="round" stroke="rgb(89.8%, 19.2%, 22%)" stroke-opacity="1" stroke-miterlimit="10" d="M 371.9375 157.757812 L 379.839844 156.5 " transform="matrix(1, 0, 0, -1, -182, 297)"/>
<path fill-rule="evenodd" fill="rgb(100%, 100%, 100%)" fill-opacity="1" stroke-width="1.2" stroke-linecap="butt" stroke-linejoin="round" stroke="rgb(0%, 0%, 0%)" stroke-opacity="1" stroke-miterlimit="10" d="M 371.9375 157.757812 L 375.058594 150.390625 " transform="matrix(1, 0, 0, -1, -182, 297)"/>
<path fill-rule="evenodd" fill="rgb(100%, 100%, 100%)" fill-opacity="1" stroke-width="1.2" stroke-linecap="butt" stroke-linejoin="round" stroke="rgb(0%, 0%, 0%)" stroke-opacity="1" stroke-miterlimit="10" d="M 371.9375 157.757812 L 366.578125 151.8125 " transform="matrix(1, 0, 0, -1, -182, 297)"/>
<path fill="none" stroke-width="2.4" stroke-linecap="butt" stroke-linejoin="round" stroke="rgb(94.9%, 58%, 0%)" stroke-opacity="1" stroke-dasharray="4" stroke-miterlimit="10" d="M 389.746094 200.871094 C 418.039062 205.671875 431.039062 220.878906 428.738281 246.484375 " transform="matrix(1, 0, 0, -1, -182, 297)"/>
<path fill="none" stroke-width="2.4" stroke-linecap="butt" stroke-linejoin="round" stroke="rgb(94.9%, 58%, 0%)" stroke-opacity="1" stroke-dasharray="4" stroke-miterlimit="10" d="M 287.164062 166.796875 C 308.335938 144.691406 336.597656 141.675781 371.9375 157.753906 " transform="matrix(1, 0, 0, -1, -182, 297)"/>
<path fill-rule="evenodd" fill="rgb(100%, 100%, 100%)" fill-opacity="1" stroke-width="1.2" stroke-linecap="butt" stroke-linejoin="round" stroke="rgb(0%, 0%, 0%)" stroke-opacity="1" stroke-miterlimit="10" d="M 287.160156 166.796875 L 294.367188 170.273438 " transform="matrix(1, 0, 0, -1, -182, 297)"/>
<path fill-rule="evenodd" fill="rgb(100%, 100%, 100%)" fill-opacity="1" stroke-width="1.2" stroke-linecap="butt" stroke-linejoin="round" stroke="rgb(0%, 0%, 0%)" stroke-opacity="1" stroke-miterlimit="10" d="M 371.9375 157.753906 L 378.980469 161.542969 " transform="matrix(1, 0, 0, -1, -182, 297)"/>
<path fill-rule="evenodd" fill="rgb(100%, 100%, 100%)" fill-opacity="1" stroke-width="1.2" stroke-linecap="butt" stroke-linejoin="round" stroke="rgb(0%, 0%, 0%)" stroke-opacity="1" stroke-miterlimit="10" d="M 371.9375 157.753906 L 378.210938 152.789062 " transform="matrix(1, 0, 0, -1, -182, 297)"/>
<path fill-rule="evenodd" fill="rgb(100%, 100%, 100%)" fill-opacity="1" stroke-width="1.2" stroke-linecap="butt" stroke-linejoin="round" stroke="rgb(0%, 0%, 0%)" stroke-opacity="1" stroke-miterlimit="10" d="M 371.9375 157.753906 L 365.476562 162.476562 " transform="matrix(1, 0, 0, -1, -182, 297)"/>
<path fill-rule="evenodd" fill="rgb(100%, 100%, 100%)" fill-opacity="1" stroke-width="1.2" stroke-linecap="butt" stroke-linejoin="round" stroke="rgb(0%, 0%, 0%)" stroke-opacity="1" stroke-miterlimit="10" d="M 287.160156 166.796875 L 285.835938 158.90625 " transform="matrix(1, 0, 0, -1, -182, 297)"/>
<path fill-rule="evenodd" fill="rgb(100%, 100%, 100%)" fill-opacity="1" stroke-width="1.2" stroke-linecap="butt" stroke-linejoin="round" stroke="rgb(0%, 0%, 0%)" stroke-opacity="1" stroke-miterlimit="10" d="M 287.160156 166.796875 L 280.628906 171.414062 " transform="matrix(1, 0, 0, -1, -182, 297)"/>
<path fill-rule="evenodd" fill="rgb(100%, 100%, 100%)" fill-opacity="1" stroke-width="2.4" stroke-linecap="butt" stroke-linejoin="round" stroke="rgb(38.4%, 40%, 39.6%)" stroke-opacity="1" stroke-dasharray="4" stroke-miterlimit="10" d="M 297.921875 203.667969 C 297.269531 208.039062 293.195312 211.050781 288.828125 210.394531 C 284.457031 209.742188 281.445312 205.667969 282.101562 201.296875 C 282.753906 196.929688 286.828125 193.917969 291.195312 194.570312 C 295.566406 195.226562 298.578125 199.296875 297.921875 203.667969 Z M 297.921875 203.667969 " transform="matrix(1, 0, 0, -1, -182, 297)"/>
<path fill-rule="evenodd" fill="rgb(100%, 100%, 100%)" fill-opacity="1" stroke-width="1.2" stroke-linecap="butt" stroke-linejoin="round" stroke="rgb(0%, 0%, 0%)" stroke-opacity="1" stroke-miterlimit="10" d="M 282.136719 203.898438 L 290.011719 202.484375 " transform="matrix(1, 0, 0, -1, -182, 297)"/>
<path fill-rule="evenodd" fill="rgb(100%, 100%, 100%)" fill-opacity="1" stroke-width="1.2" stroke-linecap="butt" stroke-linejoin="round" stroke="rgb(0%, 0%, 0%)" stroke-opacity="1" stroke-miterlimit="10" d="M 290.011719 202.484375 L 286.082031 209.449219 " transform="matrix(1, 0, 0, -1, -182, 297)"/>
<path fill-rule="evenodd" fill="rgb(100%, 100%, 100%)" fill-opacity="1" stroke-width="1.2" stroke-linecap="butt" stroke-linejoin="round" stroke="rgb(0%, 0%, 0%)" stroke-opacity="1" stroke-miterlimit="10" d="M 290.011719 202.484375 L 293.476562 209.695312 " transform="matrix(1, 0, 0, -1, -182, 297)"/>
<path fill-rule="evenodd" fill="rgb(100%, 100%, 100%)" fill-opacity="1" stroke-width="1.2" stroke-linecap="butt" stroke-linejoin="round" stroke="rgb(89.8%, 19.2%, 22%)" stroke-opacity="1" stroke-miterlimit="10" d="M 290.011719 202.484375 L 297.914062 201.230469 " transform="matrix(1, 0, 0, -1, -182, 297)"/>
<path fill-rule="evenodd" fill="rgb(100%, 100%, 100%)" fill-opacity="1" stroke-width="1.2" stroke-linecap="butt" stroke-linejoin="round" stroke="rgb(0%, 0%, 0%)" stroke-opacity="1" stroke-miterlimit="10" d="M 290.011719 202.484375 L 293.136719 195.117188 " transform="matrix(1, 0, 0, -1, -182, 297)"/>
<path fill-rule="evenodd" fill="rgb(100%, 100%, 100%)" fill-opacity="1" stroke-width="1.2" stroke-linecap="butt" stroke-linejoin="round" stroke="rgb(0%, 0%, 0%)" stroke-opacity="1" stroke-miterlimit="10" d="M 290.011719 202.484375 L 284.65625 196.542969 " transform="matrix(1, 0, 0, -1, -182, 297)"/>
<path fill="none" stroke-width="2.4" stroke-linecap="butt" stroke-linejoin="round" stroke="rgb(94.9%, 58%, 0%)" stroke-opacity="1" stroke-dasharray="4" stroke-miterlimit="10" d="M 225.410156 251.734375 C 231.402344 219.09375 252.9375 202.679688 290.011719 202.484375 " transform="matrix(1, 0, 0, -1, -182, 297)"/>
<path fill-rule="evenodd" fill="rgb(100%, 100%, 100%)" fill-opacity="1" d="M 116.410156 33.511719 C 116.410156 30.199219 113.722656 27.511719 110.410156 27.511719 C 107.09375 27.511719 104.410156 30.199219 104.410156 33.511719 C 104.410156 36.824219 107.09375 39.511719 110.410156 39.511719 C 113.722656 39.511719 116.410156 36.824219 116.410156 33.511719 Z M 116.410156 33.511719 "/>
<path fill-rule="evenodd" fill="rgb(0%, 0%, 0%)" fill-opacity="1" d="M 117.609375 33.511719 C 117.609375 29.535156 114.386719 26.3125 110.410156 26.3125 C 106.433594 26.3125 103.210938 29.535156 103.210938 33.511719 C 103.210938 37.488281 106.433594 40.710938 110.410156 40.710938 C 114.386719 40.710938 117.609375 37.488281 117.609375 33.511719 Z M 115.210938 33.511719 C 115.210938 27.109375 105.609375 27.109375 105.609375 33.511719 C 105.609375 39.910156 115.210938 39.910156 115.210938 33.511719 Z M 115.210938 33.511719 "/>
<path fill-rule="evenodd" fill="rgb(100%, 100%, 100%)" fill-opacity="1" d="M 176.410156 33.511719 C 176.410156 30.199219 173.722656 27.511719 170.410156 27.511719 C 167.09375 27.511719 164.410156 30.199219 164.410156 33.511719 C 164.410156 36.824219 167.09375 39.511719 170.410156 39.511719 C 173.722656 39.511719 176.410156 36.824219 176.410156 33.511719 Z M 176.410156 33.511719 "/>
<path fill-rule="evenodd" fill="rgb(0%, 0%, 0%)" fill-opacity="1" d="M 177.609375 33.511719 C 177.609375 29.535156 174.386719 26.3125 170.410156 26.3125 C 166.433594 26.3125 163.210938 29.535156 163.210938 33.511719 C 163.210938 37.488281 166.433594 40.710938 170.410156 40.710938 C 174.386719 40.710938 177.609375 37.488281 177.609375 33.511719 Z M 175.210938 33.511719 C 175.210938 27.109375 165.609375 27.109375 165.609375 33.511719 C 165.609375 39.910156 175.210938 39.910156 175.210938 33.511719 Z M 175.210938 33.511719 "/>
<path fill-rule="evenodd" fill="rgb(100%, 100%, 100%)" fill-opacity="1" d="M 46.410156 45.265625 C 46.410156 41.265625 40.410156 41.265625 40.410156 45.265625 C 40.410156 49.265625 46.410156 49.265625 46.410156 45.265625 Z M 46.410156 45.265625 "/>
<path fill-rule="evenodd" fill="rgb(0%, 0%, 0%)" fill-opacity="1" d="M 47.007812 45.265625 C 47.007812 40.46875 39.808594 40.46875 39.808594 45.265625 C 39.808594 50.066406 47.007812 50.066406 47.007812 45.265625 Z M 45.808594 45.265625 C 45.808594 42.066406 41.007812 42.066406 41.007812 45.265625 C 41.007812 48.46875 45.808594 48.46875 45.808594 45.265625 Z M 45.808594 45.265625 "/>
<path fill-rule="evenodd" fill="rgb(100%, 100%, 100%)" fill-opacity="1" d="M 249.738281 50.515625 C 249.738281 46.515625 243.738281 46.515625 243.738281 50.515625 C 243.738281 54.515625 249.738281 54.515625 249.738281 50.515625 Z M 249.738281 50.515625 "/>
<path fill-rule="evenodd" fill="rgb(0%, 0%, 0%)" fill-opacity="1" d="M 250.339844 50.515625 C 250.339844 45.714844 243.136719 45.714844 243.136719 50.515625 C 243.136719 55.3125 250.339844 55.3125 250.339844 50.515625 Z M 249.136719 50.515625 C 249.136719 47.3125 244.339844 47.3125 244.339844 50.515625 C 244.339844 53.714844 249.136719 53.714844 249.136719 50.515625 Z M 249.136719 50.515625 "/>
<path fill-rule="evenodd" fill="rgb(100%, 100%, 100%)" fill-opacity="1" d="M 210.746094 96.128906 C 210.746094 92.128906 204.746094 92.128906 204.746094 96.128906 C 204.746094 100.128906 210.746094 100.128906 210.746094 96.128906 Z M 210.746094 96.128906 "/>
<path fill-rule="evenodd" fill="rgb(0%, 0%, 0%)" fill-opacity="1" d="M 211.347656 96.128906 C 211.347656 91.332031 204.148438 91.332031 204.148438 96.128906 C 204.148438 100.929688 211.347656 100.929688 211.347656 96.128906 Z M 210.148438 96.128906 C 210.148438 92.929688 205.347656 92.929688 205.347656 96.128906 C 205.347656 99.332031 210.148438 99.332031 210.148438 96.128906 Z M 210.148438 96.128906 "/>
<path fill-rule="evenodd" fill="rgb(100%, 100%, 100%)" fill-opacity="1" d="M 108.160156 130.203125 C 108.160156 126.203125 102.160156 126.203125 102.160156 130.203125 C 102.160156 134.203125 108.160156 134.203125 108.160156 130.203125 Z M 108.160156 130.203125 "/>
<path fill-rule="evenodd" fill="rgb(0%, 0%, 0%)" fill-opacity="1" d="M 108.761719 130.203125 C 108.761719 125.402344 101.5625 125.402344 101.5625 130.203125 C 101.5625 135.003906 108.761719 135.003906 108.761719 130.203125 Z M 107.5625 130.203125 C 107.5625 127.003906 102.761719 127.003906 102.761719 130.203125 C 102.761719 133.402344 107.5625 133.402344 107.5625 130.203125 Z M 107.5625 130.203125 "/>
<path fill-rule="evenodd" fill="rgb(100%, 100%, 100%)" fill-opacity="1" d="M 192.9375 139.242188 C 192.9375 135.242188 186.9375 135.242188 186.9375 139.242188 C 186.9375 143.242188 192.9375 143.242188 192.9375 139.242188 Z M 192.9375 139.242188 "/>
<path fill-rule="evenodd" fill="rgb(0%, 0%, 0%)" fill-opacity="1" d="M 193.535156 139.242188 C 193.535156 134.445312 186.335938 134.445312 186.335938 139.242188 C 186.335938 144.042969 193.535156 144.042969 193.535156 139.242188 Z M 192.335938 139.242188 C 192.335938 136.042969 187.535156 136.042969 187.535156 139.242188 C 187.535156 142.445312 192.335938 142.445312 192.335938 139.242188 Z M 192.335938 139.242188 "/>
<path fill-rule="evenodd" fill="rgb(100%, 100%, 100%)" fill-opacity="1" d="M 111.011719 94.515625 C 111.011719 90.515625 105.011719 90.515625 105.011719 94.515625 C 105.011719 98.515625 111.011719 98.515625 111.011719 94.515625 Z M 111.011719 94.515625 "/>
<path fill-rule="evenodd" fill="rgb(0%, 0%, 0%)" fill-opacity="1" d="M 111.613281 94.515625 C 111.613281 89.71875 104.410156 89.71875 104.410156 94.515625 C 104.410156 99.316406 111.613281 99.316406 111.613281 94.515625 Z M 110.410156 94.515625 C 110.410156 91.316406 105.613281 91.316406 105.613281 94.515625 C 105.613281 97.71875 110.410156 97.71875 110.410156 94.515625 Z M 110.410156 94.515625 "/>
<path fill="none" stroke-width="1.2" stroke-linecap="butt" stroke-linejoin="round" stroke="rgb(89.8%, 19.2%, 22%)" stroke-opacity="1" stroke-miterlimit="10" d="M 280.757812 239.488281 C 273.316406 245.226562 268.957031 254.089844 268.957031 263.488281 C 268.957031 272.886719 273.316406 281.75 280.757812 287.488281 " transform="matrix(1, 0, 0, -1, -182, 297)"/>
<path fill-rule="evenodd" fill="rgb(89.8%, 19.2%, 22%)" fill-opacity="1" stroke-width="1.2" stroke-linecap="butt" stroke-linejoin="round" stroke="rgb(89.8%, 19.2%, 22%)" stroke-opacity="1" stroke-miterlimit="10" d="M 280.757812 287.488281 L 274.785156 285.40625 L 277.226562 282.242188 Z M 280.757812 287.488281 " transform="matrix(1, 0, 0, -1, -182, 297)"/>
<path fill="none" stroke-width="1.2" stroke-linecap="butt" stroke-linejoin="round" stroke="rgb(89.8%, 19.2%, 22%)" stroke-opacity="1" stroke-miterlimit="10" d="M 363.453125 239.488281 C 370.898438 245.226562 375.257812 254.089844 375.257812 263.488281 C 375.257812 272.886719 370.898438 281.75 363.453125 287.488281 " transform="matrix(1, 0, 0, -1, -182, 297)"/>
<path fill-rule="evenodd" fill="rgb(89.8%, 19.2%, 22%)" fill-opacity="1" stroke-width="1.2" stroke-linecap="butt" stroke-linejoin="round" stroke="rgb(89.8%, 19.2%, 22%)" stroke-opacity="1" stroke-miterlimit="10" d="M 363.453125 287.488281 L 366.988281 282.242188 L 369.425781 285.40625 Z M 363.453125 287.488281 " transform="matrix(1, 0, 0, -1, -182, 297)"/>
</svg>
