<?xml version="1.0" encoding="UTF-8"?>
<svg xmlns="http://www.w3.org/2000/svg" xmlns:xlink="http://www.w3.org/1999/xlink" width="319" height="41" viewBox="0 0 319 41">
<path fill="none" stroke-width="0.4" stroke-linecap="butt" stroke-linejoin="round" stroke="rgb(0%, 0%, 0%)" stroke-opacity="1" stroke-miterlimit="10" d="M 134.886719 703.398438 C 144.886719 718.398438 179.886719 718.398438 189.886719 703.398438 " transform="matrix(1, 0, 0, -1, -99, 729)"/>
<path fill="none" stroke-width="0.4" stroke-linecap="butt" stroke-linejoin="round" stroke="rgb(0%, 0%, 0%)" stroke-opacity="1" stroke-miterlimit="10" d="M 134.886719 703.398438 C 144.886719 688.398438 179.886719 688.398438 189.886719 703.398438 " transform="matrix(1, 0, 0, -1, -99, 729)"/>
<path fill="none" stroke-width="0.4" stroke-linecap="butt" stroke-linejoin="round" stroke="rgb(0%, 0%, 0%)" stroke-opacity="1" stroke-miterlimit="10" d="M 189.886719 703.398438 C 179.886719 728.398438 144.886719 728.398438 134.886719 703.398438 " transform="matrix(1, 0, 0, -1, -99, 729)"/>
<path fill="none" stroke-width="0.4" stroke-linecap="butt" stroke-linejoin="round" stroke="rgb(0%, 0%, 0%)" stroke-opacity="1" stroke-miterlimit="10" d="M 189.886719 703.398438 C 179.886719 723.398438 144.886719 723.398438 134.886719 703.398438 " transform="matrix(1, 0, 0, -1, -99, 729)"/>
<path fill="none" stroke-width="1.2" stroke-linecap="butt" stroke-linejoin="round" stroke="rgb(94.9%, 58%, 0%)" stroke-opacity="1" stroke-dasharray="4" stroke-miterlimit="10" d="M 134.886719 703.398438 L 109.886719 703.398438 " transform="matrix(1, 0, 0, -1, -99, 729)"/>
<path fill="none" stroke-width="0.4" stroke-linecap="butt" stroke-linejoin="round" stroke="rgb(0%, 0%, 0%)" stroke-opacity="1" stroke-miterlimit="10" d="M 134.886719 703.398438 C 144.886719 683.398438 179.886719 683.398438 189.886719 703.398438 " transform="matrix(1, 0, 0, -1, -99, 729)"/>
<path fill-rule="evenodd" fill="rgb(0%, 35.3%, 63.1%)" fill-opacity="1" d="M 37.683594 25.601562 C 37.683594 23.199219 34.085938 23.199219 34.085938 25.601562 C 34.085938 28 37.683594 28 37.683594 25.601562 Z M 37.683594 25.601562 "/>
<path fill="none" stroke-width="0.4" stroke-linecap="butt" stroke-linejoin="round" stroke="rgb(0%, 0%, 0%)" stroke-opacity="1" stroke-miterlimit="10" d="M 147.636719 703.398438 L 134.886719 703.398438 " transform="matrix(1, 0, 0, -1, -99, 729)"/>
<path fill-rule="evenodd" fill="rgb(100%, 100%, 100%)" fill-opacity="1" d="M 37.386719 25.601562 C 37.386719 23.601562 34.386719 23.601562 34.386719 25.601562 C 34.386719 27.601562 37.386719 27.601562 37.386719 25.601562 Z M 37.386719 25.601562 "/>
<path fill-rule="evenodd" fill="rgb(0%, 35.3%, 63.1%)" fill-opacity="1" d="M 37.6875 25.601562 C 37.6875 23.199219 34.085938 23.199219 34.085938 25.601562 C 34.085938 28 37.6875 28 37.6875 25.601562 Z M 37.085938 25.601562 C 37.085938 24 34.6875 24 34.6875 25.601562 C 34.6875 27.199219 37.085938 27.199219 37.085938 25.601562 Z M 37.085938 25.601562 "/>
<path fill-rule="evenodd" fill="rgb(60%, 62.4%, 62%)" fill-opacity="1" d="M 80.050781 31.71875 C 74.570312 28.289062 74.570312 22.910156 80.050781 19.484375 C 73.550781 17.875 55.136719 17.875 48.636719 25.601562 C 55.136719 33.324219 73.550781 33.324219 80.050781 31.71875 Z M 80.050781 31.71875 "/>
<path fill="none" stroke-width="0.4" stroke-linecap="butt" stroke-linejoin="round" stroke="rgb(0%, 0%, 0%)" stroke-opacity="1" stroke-miterlimit="10" d="M 189.886719 703.398438 L 176.417969 707.253906 " transform="matrix(1, 0, 0, -1, -99, 729)"/>
<path fill="none" stroke-width="0.4" stroke-linecap="butt" stroke-linejoin="round" stroke="rgb(0%, 0%, 0%)" stroke-opacity="1" stroke-miterlimit="10" d="M 175.105469 704.722656 L 189.886719 703.398438 " transform="matrix(1, 0, 0, -1, -99, 729)"/>
<path fill="none" stroke-width="0.4" stroke-linecap="butt" stroke-linejoin="round" stroke="rgb(0%, 0%, 0%)" stroke-opacity="1" stroke-miterlimit="10" d="M 189.886719 703.398438 L 175.105469 702.074219 " transform="matrix(1, 0, 0, -1, -99, 729)"/>
<path fill="none" stroke-width="0.4" stroke-linecap="butt" stroke-linejoin="round" stroke="rgb(0%, 0%, 0%)" stroke-opacity="1" stroke-miterlimit="10" d="M 176.417969 699.546875 L 189.886719 703.398438 " transform="matrix(1, 0, 0, -1, -99, 729)"/>
<path fill="none" stroke-width="0.8" stroke-linecap="butt" stroke-linejoin="round" stroke="rgb(38.4%, 40%, 39.6%)" stroke-opacity="1" stroke-miterlimit="10" d="M 179.050781 697.28125 C 173.570312 700.710938 173.570312 706.089844 179.050781 709.515625 " transform="matrix(1, 0, 0, -1, -99, 729)"/>
<path fill-rule="evenodd" fill="rgb(0%, 0%, 0%)" fill-opacity="1" d="M 92.085938 25.601562 C 92.085938 24 89.683594 24 89.683594 25.601562 C 89.683594 27.199219 92.085938 27.199219 92.085938 25.601562 Z M 92.085938 25.601562 "/>
<path fill="none" stroke-width="0.4" stroke-linecap="butt" stroke-linejoin="round" stroke="rgb(0%, 0%, 0%)" stroke-opacity="1" stroke-miterlimit="10" d="M 179.050781 697.28125 L 189.886719 703.398438 " transform="matrix(1, 0, 0, -1, -99, 729)"/>
<path fill="none" stroke-width="0.4" stroke-linecap="butt" stroke-linejoin="round" stroke="rgb(0%, 0%, 0%)" stroke-opacity="1" stroke-miterlimit="10" d="M 179.050781 709.515625 L 189.886719 703.398438 " transform="matrix(1, 0, 0, -1, -99, 729)"/>
<path fill="none" stroke-width="0.8" stroke-linecap="butt" stroke-linejoin="round" stroke="rgb(38.4%, 40%, 39.6%)" stroke-opacity="1" stroke-miterlimit="10" d="M 179.050781 709.515625 C 172.550781 711.125 154.136719 711.125 147.636719 703.398438 C 154.136719 695.675781 172.550781 695.675781 179.050781 697.28125 " transform="matrix(1, 0, 0, -1, -99, 729)"/>
<path fill-rule="evenodd" fill="rgb(0%, 0%, 0%)" fill-opacity="1" d="M 49.835938 25.601562 C 49.835938 24 47.4375 24 47.4375 25.601562 C 47.4375 27.199219 49.835938 27.199219 49.835938 25.601562 Z M 49.835938 25.601562 "/>
<path fill="none" stroke-width="0.4" stroke-linecap="butt" stroke-linejoin="round" stroke="rgb(0%, 0%, 0%)" stroke-opacity="1" stroke-miterlimit="10" d="M 109.882812 703.402344 L 100.90625 707.253906 " transform="matrix(1, 0, 0, -1, -99, 729)"/>
<path fill="none" stroke-width="0.4" stroke-linecap="butt" stroke-linejoin="round" stroke="rgb(0%, 0%, 0%)" stroke-opacity="1" stroke-miterlimit="10" d="M 100.03125 704.722656 L 109.882812 703.402344 " transform="matrix(1, 0, 0, -1, -99, 729)"/>
<path fill="none" stroke-width="0.4" stroke-linecap="butt" stroke-linejoin="round" stroke="rgb(0%, 0%, 0%)" stroke-opacity="1" stroke-miterlimit="10" d="M 109.882812 703.402344 L 100.03125 702.078125 " transform="matrix(1, 0, 0, -1, -99, 729)"/>
<path fill="none" stroke-width="0.4" stroke-linecap="butt" stroke-linejoin="round" stroke="rgb(0%, 0%, 0%)" stroke-opacity="1" stroke-miterlimit="10" d="M 100.90625 699.546875 L 109.882812 703.402344 " transform="matrix(1, 0, 0, -1, -99, 729)"/>
<path fill="none" stroke-width="0.8" stroke-linecap="butt" stroke-linejoin="round" stroke="rgb(38.4%, 40%, 39.6%)" stroke-opacity="1" stroke-miterlimit="10" d="M 102.664062 697.28125 C 99.007812 700.710938 99.007812 706.089844 102.664062 709.519531 " transform="matrix(1, 0, 0, -1, -99, 729)"/>
<path fill="none" stroke-width="0.4" stroke-linecap="butt" stroke-linejoin="round" stroke="rgb(0%, 0%, 0%)" stroke-opacity="1" stroke-miterlimit="10" d="M 102.660156 697.28125 L 109.882812 703.402344 " transform="matrix(1, 0, 0, -1, -99, 729)"/>
<path fill="none" stroke-width="0.4" stroke-linecap="butt" stroke-linejoin="round" stroke="rgb(0%, 0%, 0%)" stroke-opacity="1" stroke-miterlimit="10" d="M 102.660156 709.519531 L 109.882812 703.402344 " transform="matrix(1, 0, 0, -1, -99, 729)"/>
<path fill-rule="evenodd" fill="rgb(100%, 100%, 100%)" fill-opacity="1" d="M 12.382812 25.597656 C 12.382812 23.597656 9.382812 23.597656 9.382812 25.597656 C 9.382812 27.597656 12.382812 27.597656 12.382812 25.597656 Z M 12.382812 25.597656 "/>
<path fill-rule="evenodd" fill="rgb(0%, 0%, 0%)" fill-opacity="1" d="M 12.683594 25.597656 C 12.683594 23.199219 9.085938 23.199219 9.085938 25.597656 C 9.085938 28 12.683594 28 12.683594 25.597656 Z M 12.085938 25.597656 C 12.085938 24 9.683594 24 9.683594 25.597656 C 9.683594 27.199219 12.085938 27.199219 12.085938 25.597656 Z M 12.085938 25.597656 "/>
<path fill-rule="evenodd" fill="rgb(100%, 100%, 100%)" fill-opacity="1" stroke-width="1.2" stroke-linecap="butt" stroke-linejoin="round" stroke="rgb(89.8%, 19.2%, 22%)" stroke-opacity="1" stroke-miterlimit="10" d="M 117.386719 698.398438 L 127.386719 708.398438 " transform="matrix(1, 0, 0, -1, -99, 729)"/>
<path fill="none" stroke-width="1.2" stroke-linecap="butt" stroke-linejoin="round" stroke="rgb(94.9%, 58%, 0%)" stroke-opacity="1" stroke-dasharray="4" stroke-miterlimit="10" d="M 299.886719 703.398438 L 324.921875 703.398438 " transform="matrix(1, 0, 0, -1, -99, 729)"/>
<path fill="none" stroke-width="1.2" stroke-linecap="butt" stroke-linejoin="round" stroke="rgb(94.9%, 58%, 0%)" stroke-opacity="1" stroke-dasharray="4" stroke-miterlimit="10" d="M 244.886719 703.398438 L 219.886719 703.398438 " transform="matrix(1, 0, 0, -1, -99, 729)"/>
<path fill-rule="evenodd" fill="rgb(60%, 62.4%, 62%)" fill-opacity="1" stroke-width="0.8" stroke-linecap="butt" stroke-linejoin="round" stroke="rgb(38.4%, 40%, 39.6%)" stroke-opacity="1" stroke-miterlimit="10" d="M 256.496094 696.898438 C 267.089844 703.398438 277.683594 703.398438 288.273438 696.898438 C 277.683594 690.398438 267.089844 690.398438 256.496094 696.898438 Z M 256.496094 696.898438 " transform="matrix(1, 0, 0, -1, -99, 729)"/>
<path fill-rule="evenodd" fill="rgb(60%, 62.4%, 62%)" fill-opacity="1" stroke-width="0.8" stroke-linecap="butt" stroke-linejoin="round" stroke="rgb(38.4%, 40%, 39.6%)" stroke-opacity="1" stroke-miterlimit="10" d="M 256.496094 709.898438 C 267.089844 716.398438 277.683594 716.398438 288.273438 709.898438 C 277.683594 703.398438 267.089844 703.398438 256.496094 709.898438 Z M 256.496094 709.898438 " transform="matrix(1, 0, 0, -1, -99, 729)"/>
<path fill="none" stroke-width="0.4" stroke-linecap="butt" stroke-linejoin="round" stroke="rgb(0%, 0%, 0%)" stroke-opacity="1" stroke-miterlimit="10" d="M 299.886719 703.398438 C 295.8125 706.734375 291.941406 708.898438 288.273438 709.898438 " transform="matrix(1, 0, 0, -1, -99, 729)"/>
<path fill="none" stroke-width="0.4" stroke-linecap="butt" stroke-linejoin="round" stroke="rgb(0%, 0%, 0%)" stroke-opacity="1" stroke-miterlimit="10" d="M 244.886719 703.398438 C 248.960938 706.734375 252.832031 708.898438 256.496094 709.898438 " transform="matrix(1, 0, 0, -1, -99, 729)"/>
<path fill="none" stroke-width="0.4" stroke-linecap="butt" stroke-linejoin="round" stroke="rgb(0%, 0%, 0%)" stroke-opacity="1" stroke-miterlimit="10" d="M 244.886719 703.398438 C 248.960938 700.066406 252.832031 697.898438 256.496094 696.898438 " transform="matrix(1, 0, 0, -1, -99, 729)"/>
<path fill="none" stroke-width="0.4" stroke-linecap="butt" stroke-linejoin="round" stroke="rgb(0%, 0%, 0%)" stroke-opacity="1" stroke-miterlimit="10" d="M 299.886719 703.398438 C 295.8125 700.066406 291.941406 697.898438 288.273438 696.898438 " transform="matrix(1, 0, 0, -1, -99, 729)"/>
<path fill-rule="evenodd" fill="rgb(0%, 0%, 0%)" fill-opacity="1" d="M 158.695312 19.101562 C 158.695312 17.5 156.296875 17.5 156.296875 19.101562 C 156.296875 20.699219 158.695312 20.699219 158.695312 19.101562 Z M 158.695312 19.101562 "/>
<path fill-rule="evenodd" fill="rgb(0%, 0%, 0%)" fill-opacity="1" d="M 190.476562 19.101562 C 190.476562 17.5 188.074219 17.5 188.074219 19.101562 C 188.074219 20.699219 190.476562 20.699219 190.476562 19.101562 Z M 190.476562 19.101562 "/>
<path fill-rule="evenodd" fill="rgb(0%, 0%, 0%)" fill-opacity="1" d="M 158.695312 32.101562 C 158.695312 30.5 156.296875 30.5 156.296875 32.101562 C 156.296875 33.699219 158.695312 33.699219 158.695312 32.101562 Z M 158.695312 32.101562 "/>
<path fill-rule="evenodd" fill="rgb(0%, 0%, 0%)" fill-opacity="1" d="M 190.476562 32.101562 C 190.476562 30.5 188.074219 30.5 188.074219 32.101562 C 188.074219 33.699219 190.476562 33.699219 190.476562 32.101562 Z M 190.476562 32.101562 "/>
<path fill="none" stroke-width="1.2" stroke-linecap="butt" stroke-linejoin="round" stroke="rgb(89.8%, 19.2%, 22%)" stroke-opacity="1" stroke-dasharray="4" stroke-miterlimit="10" d="M 219.886719 703.398438 C 241.21875 710.527344 244.050781 717.65625 249.867188 721.570312 C 255.679688 725.488281 264.476562 726.195312 272.976562 726.195312 C 281.476562 726.195312 289.679688 725.488281 295.199219 721.570312 C 300.71875 717.65625 303.550781 710.527344 324.921875 703.398438 " transform="matrix(1, 0, 0, -1, -99, 729)"/>
<path fill="none" stroke-width="0.4" stroke-linecap="butt" stroke-linejoin="round" stroke="rgb(0%, 0%, 0%)" stroke-opacity="1" stroke-miterlimit="10" d="M 299.886719 703.398438 C 288.273438 722.898438 256.496094 722.898438 244.886719 703.398438 " transform="matrix(1, 0, 0, -1, -99, 729)"/>
<path fill="none" stroke-width="0.4" stroke-linecap="butt" stroke-linejoin="round" stroke="rgb(0%, 0%, 0%)" stroke-opacity="1" stroke-miterlimit="10" d="M 244.886719 703.398438 C 256.496094 683.898438 288.273438 683.898438 299.886719 703.398438 " transform="matrix(1, 0, 0, -1, -99, 729)"/>
<path fill-rule="evenodd" fill="rgb(0%, 35.3%, 63.1%)" fill-opacity="1" d="M 147.6875 25.601562 C 147.6875 23.199219 144.085938 23.199219 144.085938 25.601562 C 144.085938 28 147.6875 28 147.6875 25.601562 Z M 147.6875 25.601562 "/>
<path fill-rule="evenodd" fill="rgb(100%, 100%, 100%)" fill-opacity="1" d="M 147.386719 25.601562 C 147.386719 23.601562 144.386719 23.601562 144.386719 25.601562 C 144.386719 27.601562 147.386719 27.601562 147.386719 25.601562 Z M 147.386719 25.601562 "/>
<path fill-rule="evenodd" fill="rgb(0%, 35.3%, 63.1%)" fill-opacity="1" d="M 147.6875 25.601562 C 147.6875 23.199219 144.085938 23.199219 144.085938 25.601562 C 144.085938 28 147.6875 28 147.6875 25.601562 Z M 147.085938 25.601562 C 147.085938 24 144.6875 24 144.6875 25.601562 C 144.6875 27.199219 147.085938 27.199219 147.085938 25.601562 Z M 147.085938 25.601562 "/>
<path fill-rule="evenodd" fill="rgb(100%, 100%, 100%)" fill-opacity="1" d="M 202.386719 25.601562 C 202.386719 23.601562 199.386719 23.601562 199.386719 25.601562 C 199.386719 27.601562 202.386719 27.601562 202.386719 25.601562 Z M 202.386719 25.601562 "/>
<path fill-rule="evenodd" fill="rgb(0%, 35.3%, 63.1%)" fill-opacity="1" d="M 202.6875 25.601562 C 202.6875 23.199219 199.085938 23.199219 199.085938 25.601562 C 199.085938 28 202.6875 28 202.6875 25.601562 Z M 202.085938 25.601562 C 202.085938 24 199.6875 24 199.6875 25.601562 C 199.6875 27.199219 202.085938 27.199219 202.085938 25.601562 Z M 202.085938 25.601562 "/>
<path fill="none" stroke-width="0.4" stroke-linecap="butt" stroke-linejoin="round" stroke="rgb(0%, 0%, 0%)" stroke-opacity="1" stroke-miterlimit="10" d="M 219.886719 703.398438 L 210.910156 707.253906 " transform="matrix(1, 0, 0, -1, -99, 729)"/>
<path fill="none" stroke-width="0.4" stroke-linecap="butt" stroke-linejoin="round" stroke="rgb(0%, 0%, 0%)" stroke-opacity="1" stroke-miterlimit="10" d="M 210.035156 704.722656 L 219.886719 703.398438 " transform="matrix(1, 0, 0, -1, -99, 729)"/>
<path fill="none" stroke-width="0.4" stroke-linecap="butt" stroke-linejoin="round" stroke="rgb(0%, 0%, 0%)" stroke-opacity="1" stroke-miterlimit="10" d="M 219.886719 703.398438 L 210.035156 702.074219 " transform="matrix(1, 0, 0, -1, -99, 729)"/>
<path fill="none" stroke-width="0.4" stroke-linecap="butt" stroke-linejoin="round" stroke="rgb(0%, 0%, 0%)" stroke-opacity="1" stroke-miterlimit="10" d="M 210.910156 699.546875 L 219.886719 703.398438 " transform="matrix(1, 0, 0, -1, -99, 729)"/>
<path fill="none" stroke-width="0.8" stroke-linecap="butt" stroke-linejoin="round" stroke="rgb(38.4%, 40%, 39.6%)" stroke-opacity="1" stroke-miterlimit="10" d="M 212.664062 697.28125 C 209.007812 700.710938 209.007812 706.089844 212.664062 709.515625 " transform="matrix(1, 0, 0, -1, -99, 729)"/>
<path fill="none" stroke-width="0.4" stroke-linecap="butt" stroke-linejoin="round" stroke="rgb(0%, 0%, 0%)" stroke-opacity="1" stroke-miterlimit="10" d="M 212.664062 697.28125 L 219.886719 703.398438 " transform="matrix(1, 0, 0, -1, -99, 729)"/>
<path fill="none" stroke-width="0.4" stroke-linecap="butt" stroke-linejoin="round" stroke="rgb(0%, 0%, 0%)" stroke-opacity="1" stroke-miterlimit="10" d="M 212.664062 709.515625 L 219.886719 703.398438 " transform="matrix(1, 0, 0, -1, -99, 729)"/>
<path fill-rule="evenodd" fill="rgb(100%, 100%, 100%)" fill-opacity="1" d="M 122.386719 25.601562 C 122.386719 23.601562 119.386719 23.601562 119.386719 25.601562 C 119.386719 27.601562 122.386719 27.601562 122.386719 25.601562 Z M 122.386719 25.601562 "/>
<path fill-rule="evenodd" fill="rgb(0%, 0%, 0%)" fill-opacity="1" d="M 122.683594 25.601562 C 122.683594 23.199219 119.085938 23.199219 119.085938 25.601562 C 119.085938 28 122.683594 28 122.683594 25.601562 Z M 122.085938 25.601562 C 122.085938 24 119.683594 24 119.683594 25.601562 C 119.683594 27.199219 122.085938 27.199219 122.085938 25.601562 Z M 122.085938 25.601562 "/>
<path fill="none" stroke-width="0.4" stroke-linecap="butt" stroke-linejoin="round" stroke="rgb(0%, 0%, 0%)" stroke-opacity="1" stroke-miterlimit="10" d="M 324.921875 703.398438 L 333.898438 707.253906 " transform="matrix(1, 0, 0, -1, -99, 729)"/>
<path fill="none" stroke-width="0.4" stroke-linecap="butt" stroke-linejoin="round" stroke="rgb(0%, 0%, 0%)" stroke-opacity="1" stroke-miterlimit="10" d="M 334.773438 704.722656 L 324.921875 703.398438 " transform="matrix(1, 0, 0, -1, -99, 729)"/>
<path fill="none" stroke-width="0.4" stroke-linecap="butt" stroke-linejoin="round" stroke="rgb(0%, 0%, 0%)" stroke-opacity="1" stroke-miterlimit="10" d="M 324.921875 703.398438 L 334.773438 702.074219 " transform="matrix(1, 0, 0, -1, -99, 729)"/>
<path fill="none" stroke-width="0.4" stroke-linecap="butt" stroke-linejoin="round" stroke="rgb(0%, 0%, 0%)" stroke-opacity="1" stroke-miterlimit="10" d="M 333.898438 699.546875 L 324.921875 703.398438 " transform="matrix(1, 0, 0, -1, -99, 729)"/>
<path fill="none" stroke-width="0.8" stroke-linecap="butt" stroke-linejoin="round" stroke="rgb(38.4%, 40%, 39.6%)" stroke-opacity="1" stroke-miterlimit="10" d="M 332.144531 697.28125 C 335.800781 700.710938 335.800781 706.089844 332.144531 709.515625 " transform="matrix(1, 0, 0, -1, -99, 729)"/>
<path fill="none" stroke-width="0.4" stroke-linecap="butt" stroke-linejoin="round" stroke="rgb(0%, 0%, 0%)" stroke-opacity="1" stroke-miterlimit="10" d="M 332.144531 697.28125 L 324.921875 703.398438 " transform="matrix(1, 0, 0, -1, -99, 729)"/>
<path fill="none" stroke-width="0.4" stroke-linecap="butt" stroke-linejoin="round" stroke="rgb(0%, 0%, 0%)" stroke-opacity="1" stroke-miterlimit="10" d="M 332.144531 709.515625 L 324.921875 703.398438 " transform="matrix(1, 0, 0, -1, -99, 729)"/>
<path fill-rule="evenodd" fill="rgb(100%, 100%, 100%)" fill-opacity="1" d="M 227.421875 25.601562 C 227.421875 23.601562 224.421875 23.601562 224.421875 25.601562 C 224.421875 27.601562 227.421875 27.601562 227.421875 25.601562 Z M 227.421875 25.601562 "/>
<path fill-rule="evenodd" fill="rgb(0%, 0%, 0%)" fill-opacity="1" d="M 227.722656 25.601562 C 227.722656 23.199219 224.121094 23.199219 224.121094 25.601562 C 224.121094 28 227.722656 28 227.722656 25.601562 Z M 227.121094 25.601562 C 227.121094 24 224.722656 24 224.722656 25.601562 C 224.722656 27.199219 227.121094 27.199219 227.121094 25.601562 Z M 227.121094 25.601562 "/>
<path fill-rule="evenodd" fill="rgb(100%, 100%, 100%)" fill-opacity="1" stroke-width="1.2" stroke-linecap="butt" stroke-linejoin="round" stroke="rgb(89.8%, 19.2%, 22%)" stroke-opacity="1" stroke-miterlimit="10" d="M 231.761719 699.023438 L 235.511719 706.523438 " transform="matrix(1, 0, 0, -1, -99, 729)"/>
<path fill-rule="evenodd" fill="rgb(100%, 100%, 100%)" fill-opacity="1" stroke-width="1.2" stroke-linecap="butt" stroke-linejoin="round" stroke="rgb(89.8%, 19.2%, 22%)" stroke-opacity="1" stroke-miterlimit="10" d="M 311.777344 699.023438 L 308.027344 706.523438 " transform="matrix(1, 0, 0, -1, -99, 729)"/>
<path fill="none" stroke-width="1.2" stroke-linecap="butt" stroke-linejoin="round" stroke="rgb(94.9%, 58%, 0%)" stroke-opacity="1" stroke-dasharray="4" stroke-miterlimit="10" d="M 359.882812 703.398438 C 353.773438 718.398438 370.578125 723.898438 387.382812 723.898438 C 404.191406 723.898438 420.996094 718.398438 414.882812 703.398438 " transform="matrix(1, 0, 0, -1, -99, 729)"/>
<path fill-rule="evenodd" fill="rgb(100%, 100%, 100%)" fill-opacity="1" stroke-width="1.2" stroke-linecap="butt" stroke-linejoin="round" stroke="rgb(89.8%, 19.2%, 22%)" stroke-opacity="1" stroke-miterlimit="10" d="M 383.636719 720.117188 L 391.136719 727.617188 " transform="matrix(1, 0, 0, -1, -99, 729)"/>
<path fill="none" stroke-width="0.4" stroke-linecap="butt" stroke-linejoin="round" stroke="rgb(0%, 0%, 0%)" stroke-opacity="1" stroke-miterlimit="10" d="M 414.886719 703.398438 C 410.8125 706.734375 406.941406 708.898438 403.273438 709.898438 " transform="matrix(1, 0, 0, -1, -99, 729)"/>
<path fill="none" stroke-width="0.4" stroke-linecap="butt" stroke-linejoin="round" stroke="rgb(0%, 0%, 0%)" stroke-opacity="1" stroke-miterlimit="10" d="M 359.886719 703.398438 C 363.960938 706.734375 367.832031 708.898438 371.496094 709.898438 " transform="matrix(1, 0, 0, -1, -99, 729)"/>
<path fill="none" stroke-width="0.4" stroke-linecap="butt" stroke-linejoin="round" stroke="rgb(0%, 0%, 0%)" stroke-opacity="1" stroke-miterlimit="10" d="M 359.886719 703.398438 C 363.960938 700.066406 367.832031 697.898438 371.496094 696.898438 " transform="matrix(1, 0, 0, -1, -99, 729)"/>
<path fill="none" stroke-width="0.4" stroke-linecap="butt" stroke-linejoin="round" stroke="rgb(0%, 0%, 0%)" stroke-opacity="1" stroke-miterlimit="10" d="M 414.886719 703.398438 C 410.8125 700.066406 406.941406 697.898438 403.273438 696.898438 " transform="matrix(1, 0, 0, -1, -99, 729)"/>
<path fill-rule="evenodd" fill="rgb(60%, 62.4%, 62%)" fill-opacity="1" stroke-width="0.8" stroke-linecap="butt" stroke-linejoin="round" stroke="rgb(38.4%, 40%, 39.6%)" stroke-opacity="1" stroke-miterlimit="10" d="M 371.496094 696.898438 C 382.089844 703.398438 392.679688 703.398438 403.273438 696.898438 C 392.679688 690.398438 382.089844 690.398438 371.496094 696.898438 Z M 371.496094 696.898438 " transform="matrix(1, 0, 0, -1, -99, 729)"/>
<path fill-rule="evenodd" fill="rgb(60%, 62.4%, 62%)" fill-opacity="1" stroke-width="0.8" stroke-linecap="butt" stroke-linejoin="round" stroke="rgb(38.4%, 40%, 39.6%)" stroke-opacity="1" stroke-miterlimit="10" d="M 371.496094 709.898438 C 382.089844 716.398438 392.679688 716.398438 403.273438 709.898438 C 392.679688 703.398438 382.089844 703.398438 371.496094 709.898438 Z M 371.496094 709.898438 " transform="matrix(1, 0, 0, -1, -99, 729)"/>
<path fill="none" stroke-width="0.4" stroke-linecap="butt" stroke-linejoin="round" stroke="rgb(0%, 0%, 0%)" stroke-opacity="1" stroke-miterlimit="10" d="M 414.882812 703.398438 C 403.273438 722.898438 371.496094 722.898438 359.882812 703.398438 " transform="matrix(1, 0, 0, -1, -99, 729)"/>
<path fill="none" stroke-width="0.4" stroke-linecap="butt" stroke-linejoin="round" stroke="rgb(0%, 0%, 0%)" stroke-opacity="1" stroke-miterlimit="10" d="M 359.882812 703.398438 C 371.496094 683.898438 403.273438 683.898438 414.882812 703.398438 " transform="matrix(1, 0, 0, -1, -99, 729)"/>
<path fill-rule="evenodd" fill="rgb(0%, 35.3%, 63.1%)" fill-opacity="1" d="M 262.6875 25.601562 C 262.6875 23.199219 259.085938 23.199219 259.085938 25.601562 C 259.085938 28 262.6875 28 262.6875 25.601562 Z M 262.6875 25.601562 "/>
<path fill-rule="evenodd" fill="rgb(100%, 100%, 100%)" fill-opacity="1" d="M 262.386719 25.601562 C 262.386719 23.601562 259.386719 23.601562 259.386719 25.601562 C 259.386719 27.601562 262.386719 27.601562 262.386719 25.601562 Z M 262.386719 25.601562 "/>
<path fill-rule="evenodd" fill="rgb(0%, 35.3%, 63.1%)" fill-opacity="1" d="M 262.6875 25.601562 C 262.6875 23.199219 259.085938 23.199219 259.085938 25.601562 C 259.085938 28 262.6875 28 262.6875 25.601562 Z M 262.085938 25.601562 C 262.085938 24 259.6875 24 259.6875 25.601562 C 259.6875 27.199219 262.085938 27.199219 262.085938 25.601562 Z M 262.085938 25.601562 "/>
<path fill-rule="evenodd" fill="rgb(0%, 35.3%, 63.1%)" fill-opacity="1" d="M 317.6875 25.601562 C 317.6875 23.199219 314.085938 23.199219 314.085938 25.601562 C 314.085938 28 317.6875 28 317.6875 25.601562 Z M 317.6875 25.601562 "/>
<path fill-rule="evenodd" fill="rgb(100%, 100%, 100%)" fill-opacity="1" d="M 317.386719 25.601562 C 317.386719 23.601562 314.386719 23.601562 314.386719 25.601562 C 314.386719 27.601562 317.386719 27.601562 317.386719 25.601562 Z M 317.386719 25.601562 "/>
<path fill-rule="evenodd" fill="rgb(0%, 35.3%, 63.1%)" fill-opacity="1" d="M 317.6875 25.601562 C 317.6875 23.199219 314.085938 23.199219 314.085938 25.601562 C 314.085938 28 317.6875 28 317.6875 25.601562 Z M 317.085938 25.601562 C 317.085938 24 314.6875 24 314.6875 25.601562 C 314.6875 27.199219 317.085938 27.199219 317.085938 25.601562 Z M 317.085938 25.601562 "/>
<path fill-rule="evenodd" fill="rgb(0%, 0%, 0%)" fill-opacity="1" d="M 273.695312 19.101562 C 273.695312 17.5 271.296875 17.5 271.296875 19.101562 C 271.296875 20.699219 273.695312 20.699219 273.695312 19.101562 Z M 273.695312 19.101562 "/>
<path fill-rule="evenodd" fill="rgb(0%, 0%, 0%)" fill-opacity="1" d="M 305.472656 19.101562 C 305.472656 17.5 303.074219 17.5 303.074219 19.101562 C 303.074219 20.699219 305.472656 20.699219 305.472656 19.101562 Z M 305.472656 19.101562 "/>
<path fill-rule="evenodd" fill="rgb(0%, 0%, 0%)" fill-opacity="1" d="M 273.695312 32.101562 C 273.695312 30.5 271.296875 30.5 271.296875 32.101562 C 271.296875 33.699219 273.695312 33.699219 273.695312 32.101562 Z M 273.695312 32.101562 "/>
<path fill-rule="evenodd" fill="rgb(0%, 0%, 0%)" fill-opacity="1" d="M 305.472656 32.101562 C 305.472656 30.5 303.074219 30.5 303.074219 32.101562 C 303.074219 33.699219 305.472656 33.699219 305.472656 32.101562 Z M 305.472656 32.101562 "/>
</svg>
