<?xml version="1.0" encoding="UTF-8"?>
<svg xmlns="http://www.w3.org/2000/svg" xmlns:xlink="http://www.w3.org/1999/xlink" width="277" height="62" viewBox="0 0 277 62">
<path fill-rule="evenodd" fill="rgb(60%, 62.4%, 62%)" fill-opacity="1" stroke-width="0.4" stroke-linecap="butt" stroke-linejoin="round" stroke="rgb(0%, 0%, 0%)" stroke-opacity="1" stroke-miterlimit="10" d="M 163.652344 697.195312 C 162.625 699.09375 162.542969 701.429688 162.109375 704.523438 C 161.679688 707.613281 160.898438 711.457031 161.070312 715.492188 C 161.238281 719.53125 162.359375 723.757812 165.285156 726.074219 C 168.207031 728.390625 172.9375 728.800781 175.628906 727.066406 C 178.320312 725.332031 178.976562 721.460938 179.515625 718.859375 C 180.050781 716.253906 180.46875 714.921875 181.195312 712.65625 C 181.921875 710.390625 182.960938 707.195312 184 707.195312 C 185.039062 707.195312 186.078125 710.390625 186.863281 712.6875 C 187.652344 714.980469 188.1875 716.375 188.582031 719.632812 C 188.976562 722.894531 189.226562 728.015625 193.121094 729.394531 C 197.015625 730.773438 204.554688 728.410156 208.644531 723.492188 C 212.734375 718.574219 213.382812 711.105469 212.292969 707.113281 C 211.203125 703.125 208.375 702.617188 205.566406 702.765625 C 202.761719 702.914062 199.976562 703.71875 198.066406 704.03125 C 196.15625 704.347656 195.117188 704.171875 192.917969 704.085938 C 190.71875 704 187.359375 704 187.039062 703.011719 C 186.71875 702.023438 189.4375 700.050781 191.109375 698.632812 C 192.785156 697.21875 193.414062 696.363281 195.730469 695.375 C 198.046875 694.382812 202.050781 693.261719 203.429688 690.65625 C 204.8125 688.046875 203.566406 683.953125 199.519531 681.246094 C 195.472656 678.539062 188.625 677.222656 183.796875 678.109375 C 178.96875 678.996094 176.160156 682.085938 175.988281 684.398438 C 175.8125 686.714844 178.269531 688.253906 179.523438 689.796875 C 180.777344 691.335938 180.832031 692.875 181.378906 695.242188 C 181.921875 697.609375 182.960938 700.804688 182.121094 701.414062 C 181.28125 702.023438 178.5625 700.050781 176.851562 698.804688 C 175.140625 697.558594 174.4375 697.039062 173.230469 696.089844 C 172.027344 695.136719 170.324219 693.753906 168.484375 693.792969 C 166.648438 693.832031 164.675781 695.292969 163.652344 697.195312 Z M 163.652344 697.195312 " transform="matrix(1, 0, 0, -1, -104, 731)"/>
<path fill-rule="evenodd" fill="rgb(60%, 62.4%, 62%)" fill-opacity="1" stroke-width="0.4" stroke-linecap="butt" stroke-linejoin="round" stroke="rgb(0%, 0%, 0%)" stroke-opacity="1" stroke-miterlimit="10" d="M 117.902344 726.234375 C 121.683594 727.632812 124.707031 728.566406 129.242188 728.566406 C 133.78125 728.566406 139.828125 727.632812 143.609375 726.234375 C 147.386719 724.832031 148.898438 722.964844 150.410156 718.300781 C 151.925781 713.632812 153.4375 706.167969 153.058594 700.566406 C 152.679688 694.964844 150.410156 691.234375 148.523438 688.433594 C 146.632812 685.632812 145.121094 683.765625 142.097656 682.832031 C 139.070312 681.898438 134.535156 681.898438 130 680.5 C 125.464844 679.101562 120.929688 676.300781 117.527344 676.300781 C 114.125 676.300781 111.855469 679.101562 109.964844 682.832031 C 108.074219 686.566406 106.5625 691.234375 105.808594 697.765625 C 105.050781 704.300781 105.050781 712.699219 107.320312 717.832031 C 109.589844 722.964844 114.125 724.832031 117.902344 726.234375 Z M 117.902344 726.234375 " transform="matrix(1, 0, 0, -1, -104, 731)"/>
<path fill="none" stroke-width="0.4" stroke-linecap="butt" stroke-linejoin="round" stroke="rgb(0%, 0%, 0%)" stroke-opacity="1" stroke-miterlimit="10" d="M 144 704 L 140.945312 713.40625 L 132.945312 719.21875 L 123.054688 719.21875 L 115.054688 713.40625 L 112 704 L 115.054688 694.59375 L 123.054688 688.78125 L 132.945312 688.78125 L 140.945312 694.59375 Z M 144 704 " transform="matrix(1, 0, 0, -1, -104, 731)"/>
<path fill-rule="evenodd" fill="rgb(100%, 100%, 100%)" fill-opacity="1" stroke-width="0.4" stroke-linecap="butt" stroke-linejoin="round" stroke="rgb(0%, 0%, 0%)" stroke-opacity="1" stroke-dasharray="1 3" stroke-miterlimit="10" d="M 144 704 C 144 712.835938 136.835938 720 128 720 C 119.164062 720 112 712.835938 112 704 C 112 695.164062 119.164062 688 128 688 C 136.835938 688 144 695.164062 144 704 Z M 144 704 " transform="matrix(1, 0, 0, -1, -104, 731)"/>
<path fill="none" stroke-width="0.4" stroke-linecap="butt" stroke-linejoin="round" stroke="rgb(0%, 0%, 0%)" stroke-opacity="1" stroke-miterlimit="10" d="M 132.945312 719.21875 L 128 704 " transform="matrix(1, 0, 0, -1, -104, 731)"/>
<path fill="none" stroke-width="0.4" stroke-linecap="butt" stroke-linejoin="round" stroke="rgb(0%, 0%, 0%)" stroke-opacity="1" stroke-miterlimit="10" d="M 128 704 L 140.945312 713.40625 " transform="matrix(1, 0, 0, -1, -104, 731)"/>
<path fill="none" stroke-width="0.4" stroke-linecap="butt" stroke-linejoin="round" stroke="rgb(0%, 0%, 0%)" stroke-opacity="1" stroke-miterlimit="10" d="M 144 704 L 128 704 " transform="matrix(1, 0, 0, -1, -104, 731)"/>
<path fill="none" stroke-width="0.4" stroke-linecap="butt" stroke-linejoin="round" stroke="rgb(0%, 0%, 0%)" stroke-opacity="1" stroke-miterlimit="10" d="M 128 704 L 140.945312 694.59375 " transform="matrix(1, 0, 0, -1, -104, 731)"/>
<path fill="none" stroke-width="0.4" stroke-linecap="butt" stroke-linejoin="round" stroke="rgb(0%, 0%, 0%)" stroke-opacity="1" stroke-miterlimit="10" d="M 132.945312 688.78125 L 128 704 " transform="matrix(1, 0, 0, -1, -104, 731)"/>
<path fill="none" stroke-width="0.4" stroke-linecap="butt" stroke-linejoin="round" stroke="rgb(0%, 0%, 0%)" stroke-opacity="1" stroke-miterlimit="10" d="M 128 704 L 123.054688 688.78125 " transform="matrix(1, 0, 0, -1, -104, 731)"/>
<path fill="none" stroke-width="0.4" stroke-linecap="butt" stroke-linejoin="round" stroke="rgb(0%, 0%, 0%)" stroke-opacity="1" stroke-miterlimit="10" d="M 115.054688 694.59375 L 128 704 " transform="matrix(1, 0, 0, -1, -104, 731)"/>
<path fill="none" stroke-width="0.4" stroke-linecap="butt" stroke-linejoin="round" stroke="rgb(0%, 0%, 0%)" stroke-opacity="1" stroke-miterlimit="10" d="M 128 704 L 112 704 " transform="matrix(1, 0, 0, -1, -104, 731)"/>
<path fill="none" stroke-width="0.4" stroke-linecap="butt" stroke-linejoin="round" stroke="rgb(0%, 0%, 0%)" stroke-opacity="1" stroke-miterlimit="10" d="M 115.054688 713.40625 L 128 704 " transform="matrix(1, 0, 0, -1, -104, 731)"/>
<path fill="none" stroke-width="1.2" stroke-linecap="butt" stroke-linejoin="round" stroke="rgb(0%, 0%, 0%)" stroke-opacity="1" stroke-miterlimit="10" d="M 128 704 L 123.054688 719.21875 " transform="matrix(1, 0, 0, -1, -104, 731)"/>
<path fill="none" stroke-width="0.4" stroke-linecap="butt" stroke-linejoin="round" stroke="rgb(0%, 0%, 0%)" stroke-opacity="1" stroke-miterlimit="10" d="M 124.304688 715.371094 C 125.214844 715.667969 126.160156 715.851562 127.113281 715.925781 " transform="matrix(1, 0, 0, -1, -104, 731)"/>
<path fill-rule="evenodd" fill="rgb(0%, 0%, 0%)" fill-opacity="1" stroke-width="0.4" stroke-linecap="butt" stroke-linejoin="round" stroke="rgb(0%, 0%, 0%)" stroke-opacity="1" stroke-miterlimit="10" d="M 127.113281 715.925781 C 126.1875 715.539062 125.316406 715.039062 124.519531 714.433594 L 124.144531 716.289062 C 125.144531 716.292969 126.140625 716.167969 127.113281 715.925781 Z M 127.113281 715.925781 " transform="matrix(1, 0, 0, -1, -104, 731)"/>
<path fill="none" stroke-width="0.4" stroke-linecap="butt" stroke-linejoin="round" stroke="rgb(0%, 0%, 0%)" stroke-opacity="1" stroke-miterlimit="10" d="M 168 704 L 171.054688 713.40625 L 179.054688 719.21875 L 188.945312 719.21875 L 196.945312 713.40625 L 200 704 L 196.945312 694.59375 L 188.945312 688.78125 L 179.054688 688.78125 L 171.054688 694.59375 Z M 168 704 " transform="matrix(1, 0, 0, -1, -104, 731)"/>
<path fill-rule="evenodd" fill="rgb(100%, 100%, 100%)" fill-opacity="1" stroke-width="0.4" stroke-linecap="butt" stroke-linejoin="round" stroke="rgb(0%, 0%, 0%)" stroke-opacity="1" stroke-dasharray="1 3" stroke-miterlimit="10" d="M 168 704 C 168 712.835938 175.164062 720 184 720 C 192.835938 720 200 712.835938 200 704 C 200 695.164062 192.835938 688 184 688 C 175.164062 688 168 695.164062 168 704 Z M 168 704 " transform="matrix(1, 0, 0, -1, -104, 731)"/>
<path fill="none" stroke-width="0.4" stroke-linecap="butt" stroke-linejoin="round" stroke="rgb(0%, 0%, 0%)" stroke-opacity="1" stroke-miterlimit="10" d="M 179.054688 719.21875 L 184 704 " transform="matrix(1, 0, 0, -1, -104, 731)"/>
<path fill="none" stroke-width="0.4" stroke-linecap="butt" stroke-linejoin="round" stroke="rgb(0%, 0%, 0%)" stroke-opacity="1" stroke-miterlimit="10" d="M 184 704 L 171.054688 713.40625 " transform="matrix(1, 0, 0, -1, -104, 731)"/>
<path fill="none" stroke-width="0.4" stroke-linecap="butt" stroke-linejoin="round" stroke="rgb(0%, 0%, 0%)" stroke-opacity="1" stroke-miterlimit="10" d="M 168 704 L 184 704 " transform="matrix(1, 0, 0, -1, -104, 731)"/>
<path fill="none" stroke-width="0.4" stroke-linecap="butt" stroke-linejoin="round" stroke="rgb(0%, 0%, 0%)" stroke-opacity="1" stroke-miterlimit="10" d="M 184 704 L 171.054688 694.59375 " transform="matrix(1, 0, 0, -1, -104, 731)"/>
<path fill="none" stroke-width="0.4" stroke-linecap="butt" stroke-linejoin="round" stroke="rgb(0%, 0%, 0%)" stroke-opacity="1" stroke-miterlimit="10" d="M 179.054688 688.78125 L 184 704 " transform="matrix(1, 0, 0, -1, -104, 731)"/>
<path fill="none" stroke-width="0.4" stroke-linecap="butt" stroke-linejoin="round" stroke="rgb(0%, 0%, 0%)" stroke-opacity="1" stroke-miterlimit="10" d="M 184 704 L 188.945312 688.78125 " transform="matrix(1, 0, 0, -1, -104, 731)"/>
<path fill="none" stroke-width="0.4" stroke-linecap="butt" stroke-linejoin="round" stroke="rgb(0%, 0%, 0%)" stroke-opacity="1" stroke-miterlimit="10" d="M 196.945312 694.59375 L 184 704 " transform="matrix(1, 0, 0, -1, -104, 731)"/>
<path fill="none" stroke-width="0.4" stroke-linecap="butt" stroke-linejoin="round" stroke="rgb(0%, 0%, 0%)" stroke-opacity="1" stroke-miterlimit="10" d="M 184 704 L 200 704 " transform="matrix(1, 0, 0, -1, -104, 731)"/>
<path fill="none" stroke-width="0.4" stroke-linecap="butt" stroke-linejoin="round" stroke="rgb(0%, 0%, 0%)" stroke-opacity="1" stroke-miterlimit="10" d="M 196.945312 713.40625 L 184 704 " transform="matrix(1, 0, 0, -1, -104, 731)"/>
<path fill="none" stroke-width="1.2" stroke-linecap="butt" stroke-linejoin="round" stroke="rgb(0%, 0%, 0%)" stroke-opacity="1" stroke-miterlimit="10" d="M 184 704 L 188.945312 719.21875 " transform="matrix(1, 0, 0, -1, -104, 731)"/>
<path fill="none" stroke-width="0.4" stroke-linecap="butt" stroke-linejoin="round" stroke="rgb(0%, 0%, 0%)" stroke-opacity="1" stroke-miterlimit="10" d="M 187.695312 715.371094 C 186.785156 715.667969 185.839844 715.851562 184.886719 715.925781 " transform="matrix(1, 0, 0, -1, -104, 731)"/>
<path fill-rule="evenodd" fill="rgb(0%, 0%, 0%)" fill-opacity="1" stroke-width="0.4" stroke-linecap="butt" stroke-linejoin="round" stroke="rgb(0%, 0%, 0%)" stroke-opacity="1" stroke-miterlimit="10" d="M 187.855469 716.289062 C 186.855469 716.292969 185.859375 716.167969 184.886719 715.925781 C 185.8125 715.539062 186.683594 715.039062 187.480469 714.433594 Z M 187.855469 716.289062 " transform="matrix(1, 0, 0, -1, -104, 731)"/>
<path fill="none" stroke-width="1.2" stroke-linecap="butt" stroke-linejoin="round" stroke="rgb(94.9%, 58%, 0%)" stroke-opacity="1" stroke-dasharray="4" stroke-miterlimit="10" d="M 128 704 C 146.667969 714.667969 165.335938 714.667969 184 704 " transform="matrix(1, 0, 0, -1, -104, 731)"/>
<path fill-rule="evenodd" fill="rgb(100%, 100%, 100%)" fill-opacity="1" d="M 82.5 27 C 82.5 23.667969 77.5 23.667969 77.5 27 C 77.5 30.332031 82.5 30.332031 82.5 27 Z M 82.5 27 "/>
<path fill-rule="evenodd" fill="rgb(0%, 0%, 0%)" fill-opacity="1" d="M 83 27 C 83 23 77 23 77 27 C 77 31 83 31 83 27 Z M 82 27 C 82 24.332031 78 24.332031 78 27 C 78 29.667969 82 29.667969 82 27 Z M 82 27 "/>
<path fill-rule="evenodd" fill="rgb(0%, 0%, 0%)" fill-opacity="1" d="M 25.800781 27 C 25.800781 24.601562 22.199219 24.601562 22.199219 27 C 22.199219 29.398438 25.800781 29.398438 25.800781 27 Z M 25.800781 27 "/>
<path fill-rule="evenodd" fill="rgb(100%, 100%, 100%)" fill-opacity="1" d="M 26.5 27 C 26.5 23.667969 21.5 23.667969 21.5 27 C 21.5 30.332031 26.5 30.332031 26.5 27 Z M 26.5 27 "/>
<path fill-rule="evenodd" fill="rgb(0%, 0%, 0%)" fill-opacity="1" d="M 27 27 C 27 23 21 23 21 27 C 21 31 27 31 27 27 Z M 26 27 C 26 24.332031 22 24.332031 22 27 C 22 29.667969 26 29.667969 26 27 Z M 26 27 "/>
<path fill="none" stroke-width="0.4" stroke-linecap="butt" stroke-linejoin="round" stroke="rgb(0%, 0%, 0%)" stroke-opacity="1" stroke-miterlimit="10" d="M 127.929688 698.449219 C 127.378906 663.671875 201.097656 662.078125 222.648438 684.515625 " transform="matrix(1, 0, 0, -1, -104, 731)"/>
<path fill-rule="evenodd" fill="rgb(0%, 0%, 0%)" fill-opacity="1" stroke-width="0.4" stroke-linecap="butt" stroke-linejoin="round" stroke="rgb(0%, 0%, 0%)" stroke-opacity="1" stroke-miterlimit="10" d="M 222.648438 684.515625 L 219.847656 683.042969 L 221.289062 681.660156 Z M 222.648438 684.515625 " transform="matrix(1, 0, 0, -1, -104, 731)"/>
<path fill-rule="evenodd" fill="rgb(60%, 62.4%, 62%)" fill-opacity="1" stroke-width="0.4" stroke-linecap="butt" stroke-linejoin="round" stroke="rgb(0%, 0%, 0%)" stroke-opacity="1" stroke-miterlimit="10" d="M 331.558594 697.347656 C 330.625 699.09375 330.542969 701.429688 330.109375 704.523438 C 329.679688 707.613281 328.898438 711.457031 329.070312 715.492188 C 329.238281 719.53125 330.359375 723.757812 333.285156 726.074219 C 336.207031 728.390625 340.9375 728.800781 343.664062 727.042969 C 346.390625 725.289062 347.117188 721.371094 347.652344 718.765625 C 348.191406 716.164062 348.539062 714.875 349.230469 712.632812 C 349.921875 710.390625 350.960938 707.195312 352 707.195312 C 353.039062 707.195312 354.078125 710.390625 354.855469 712.601562 C 355.636719 714.8125 356.160156 716.039062 356.554688 719.296875 C 356.949219 722.554688 357.214844 727.847656 361.117188 729.308594 C 365.015625 730.773438 372.554688 728.410156 376.644531 723.492188 C 380.734375 718.574219 381.382812 711.105469 380.292969 707.113281 C 379.203125 703.125 376.375 702.617188 373.617188 702.695312 C 370.855469 702.773438 368.167969 703.433594 366.257812 703.75 C 364.347656 704.0625 363.214844 704.03125 360.964844 704.015625 C 358.71875 704 355.359375 704 355.039062 703.011719 C 354.71875 702.023438 357.4375 700.050781 359.132812 698.757812 C 360.832031 697.464844 361.507812 696.851562 363.828125 695.863281 C 366.144531 694.875 370.101562 693.507812 371.457031 690.777344 C 372.8125 688.046875 371.566406 683.953125 367.519531 681.246094 C 363.472656 678.539062 356.625 677.222656 351.796875 678.109375 C 346.96875 678.996094 344.160156 682.085938 344.027344 684.617188 C 343.894531 687.152344 346.433594 689.132812 347.6875 690.675781 C 348.941406 692.214844 348.914062 693.3125 349.417969 695.460938 C 349.921875 697.609375 350.960938 700.804688 350.121094 701.414062 C 349.28125 702.023438 346.5625 700.050781 344.851562 698.804688 C 343.140625 697.558594 342.4375 697.039062 341.140625 696.242188 C 339.839844 695.445312 337.953125 694.367188 336.113281 694.40625 C 334.277344 694.445312 332.492188 695.601562 331.558594 697.347656 Z M 331.558594 697.347656 " transform="matrix(1, 0, 0, -1, -104, 731)"/>
<path fill-rule="evenodd" fill="rgb(60%, 62.4%, 62%)" fill-opacity="1" stroke-width="0.4" stroke-linecap="butt" stroke-linejoin="round" stroke="rgb(0%, 0%, 0%)" stroke-opacity="1" stroke-miterlimit="10" d="M 277.902344 726.234375 C 281.683594 727.632812 284.707031 728.566406 289.242188 728.566406 C 293.78125 728.566406 299.828125 727.632812 303.609375 726.234375 C 307.386719 724.832031 308.898438 722.964844 310.410156 718.300781 C 311.925781 713.632812 313.4375 706.167969 313.058594 700.566406 C 312.679688 694.964844 310.410156 691.234375 308.523438 688.433594 C 306.632812 685.632812 305.121094 683.765625 302.097656 682.832031 C 299.070312 681.898438 294.535156 681.898438 290 680.5 C 285.464844 679.101562 280.929688 676.300781 277.527344 676.300781 C 274.125 676.300781 271.855469 679.101562 269.964844 682.832031 C 268.074219 686.566406 266.5625 691.234375 265.808594 697.765625 C 265.050781 704.300781 265.050781 712.699219 267.320312 717.832031 C 269.589844 722.964844 274.125 724.832031 277.902344 726.234375 Z M 277.902344 726.234375 " transform="matrix(1, 0, 0, -1, -104, 731)"/>
<path fill="none" stroke-width="0.4" stroke-linecap="butt" stroke-linejoin="round" stroke="rgb(0%, 0%, 0%)" stroke-opacity="1" stroke-miterlimit="10" d="M 292.945312 719.21875 L 288 704 " transform="matrix(1, 0, 0, -1, -104, 731)"/>
<path fill="none" stroke-width="0.4" stroke-linecap="butt" stroke-linejoin="round" stroke="rgb(0%, 0%, 0%)" stroke-opacity="1" stroke-miterlimit="10" d="M 288 704 L 300.945312 713.40625 " transform="matrix(1, 0, 0, -1, -104, 731)"/>
<path fill="none" stroke-width="0.4" stroke-linecap="butt" stroke-linejoin="round" stroke="rgb(0%, 0%, 0%)" stroke-opacity="1" stroke-miterlimit="10" d="M 304 704 L 288 704 " transform="matrix(1, 0, 0, -1, -104, 731)"/>
<path fill="none" stroke-width="0.4" stroke-linecap="butt" stroke-linejoin="round" stroke="rgb(0%, 0%, 0%)" stroke-opacity="1" stroke-miterlimit="10" d="M 288 704 L 300.945312 694.59375 " transform="matrix(1, 0, 0, -1, -104, 731)"/>
<path fill="none" stroke-width="0.4" stroke-linecap="butt" stroke-linejoin="round" stroke="rgb(0%, 0%, 0%)" stroke-opacity="1" stroke-miterlimit="10" d="M 292.945312 688.78125 L 288 704 " transform="matrix(1, 0, 0, -1, -104, 731)"/>
<path fill="none" stroke-width="0.4" stroke-linecap="butt" stroke-linejoin="round" stroke="rgb(0%, 0%, 0%)" stroke-opacity="1" stroke-miterlimit="10" d="M 288 704 L 283.054688 688.78125 " transform="matrix(1, 0, 0, -1, -104, 731)"/>
<path fill="none" stroke-width="0.4" stroke-linecap="butt" stroke-linejoin="round" stroke="rgb(0%, 0%, 0%)" stroke-opacity="1" stroke-miterlimit="10" d="M 275.054688 694.59375 L 288 704 " transform="matrix(1, 0, 0, -1, -104, 731)"/>
<path fill="none" stroke-width="0.4" stroke-linecap="butt" stroke-linejoin="round" stroke="rgb(0%, 0%, 0%)" stroke-opacity="1" stroke-miterlimit="10" d="M 288 704 L 272 704 " transform="matrix(1, 0, 0, -1, -104, 731)"/>
<path fill="none" stroke-width="0.4" stroke-linecap="butt" stroke-linejoin="round" stroke="rgb(0%, 0%, 0%)" stroke-opacity="1" stroke-miterlimit="10" d="M 275.054688 713.40625 L 288 704 " transform="matrix(1, 0, 0, -1, -104, 731)"/>
<path fill="none" stroke-width="1.2" stroke-linecap="butt" stroke-linejoin="round" stroke="rgb(0%, 0%, 0%)" stroke-opacity="1" stroke-miterlimit="10" d="M 288 704 L 283.054688 719.21875 " transform="matrix(1, 0, 0, -1, -104, 731)"/>
<path fill="none" stroke-width="0.4" stroke-linecap="butt" stroke-linejoin="round" stroke="rgb(0%, 0%, 0%)" stroke-opacity="1" stroke-miterlimit="10" d="M 284.304688 715.371094 C 285.214844 715.667969 286.160156 715.851562 287.113281 715.925781 " transform="matrix(1, 0, 0, -1, -104, 731)"/>
<path fill="none" stroke-width="0.4" stroke-linecap="butt" stroke-linejoin="round" stroke="rgb(0%, 0%, 0%)" stroke-opacity="1" stroke-miterlimit="10" d="M 284.046875 716.699219 L 287.113281 715.925781 L 284.195312 714.707031 " transform="matrix(1, 0, 0, -1, -104, 731)"/>
<path fill="none" stroke-width="0.4" stroke-linecap="butt" stroke-linejoin="round" stroke="rgb(0%, 0%, 0%)" stroke-opacity="1" stroke-miterlimit="10" d="M 347.054688 719.21875 L 352 704 " transform="matrix(1, 0, 0, -1, -104, 731)"/>
<path fill="none" stroke-width="0.4" stroke-linecap="butt" stroke-linejoin="round" stroke="rgb(0%, 0%, 0%)" stroke-opacity="1" stroke-miterlimit="10" d="M 352 704 L 339.054688 713.40625 " transform="matrix(1, 0, 0, -1, -104, 731)"/>
<path fill="none" stroke-width="0.4" stroke-linecap="butt" stroke-linejoin="round" stroke="rgb(0%, 0%, 0%)" stroke-opacity="1" stroke-miterlimit="10" d="M 336 704 L 352 704 " transform="matrix(1, 0, 0, -1, -104, 731)"/>
<path fill="none" stroke-width="0.4" stroke-linecap="butt" stroke-linejoin="round" stroke="rgb(0%, 0%, 0%)" stroke-opacity="1" stroke-miterlimit="10" d="M 352 704 L 339.054688 694.59375 " transform="matrix(1, 0, 0, -1, -104, 731)"/>
<path fill="none" stroke-width="0.4" stroke-linecap="butt" stroke-linejoin="round" stroke="rgb(0%, 0%, 0%)" stroke-opacity="1" stroke-miterlimit="10" d="M 347.054688 688.78125 L 352 704 " transform="matrix(1, 0, 0, -1, -104, 731)"/>
<path fill="none" stroke-width="0.4" stroke-linecap="butt" stroke-linejoin="round" stroke="rgb(0%, 0%, 0%)" stroke-opacity="1" stroke-miterlimit="10" d="M 352 704 L 356.945312 688.78125 " transform="matrix(1, 0, 0, -1, -104, 731)"/>
<path fill="none" stroke-width="0.4" stroke-linecap="butt" stroke-linejoin="round" stroke="rgb(0%, 0%, 0%)" stroke-opacity="1" stroke-miterlimit="10" d="M 364.945312 694.59375 L 352 704 " transform="matrix(1, 0, 0, -1, -104, 731)"/>
<path fill="none" stroke-width="0.4" stroke-linecap="butt" stroke-linejoin="round" stroke="rgb(0%, 0%, 0%)" stroke-opacity="1" stroke-miterlimit="10" d="M 352 704 L 368 704 " transform="matrix(1, 0, 0, -1, -104, 731)"/>
<path fill="none" stroke-width="0.4" stroke-linecap="butt" stroke-linejoin="round" stroke="rgb(0%, 0%, 0%)" stroke-opacity="1" stroke-miterlimit="10" d="M 364.945312 713.40625 L 352 704 " transform="matrix(1, 0, 0, -1, -104, 731)"/>
<path fill="none" stroke-width="1.2" stroke-linecap="butt" stroke-linejoin="round" stroke="rgb(0%, 0%, 0%)" stroke-opacity="1" stroke-miterlimit="10" d="M 352 704 L 356.945312 719.21875 " transform="matrix(1, 0, 0, -1, -104, 731)"/>
<path fill="none" stroke-width="0.4" stroke-linecap="butt" stroke-linejoin="round" stroke="rgb(0%, 0%, 0%)" stroke-opacity="1" stroke-miterlimit="10" d="M 355.695312 715.371094 C 354.785156 715.667969 353.839844 715.851562 352.886719 715.925781 " transform="matrix(1, 0, 0, -1, -104, 731)"/>
<path fill="none" stroke-width="0.4" stroke-linecap="butt" stroke-linejoin="round" stroke="rgb(0%, 0%, 0%)" stroke-opacity="1" stroke-miterlimit="10" d="M 355.804688 714.707031 L 352.886719 715.925781 L 355.953125 716.699219 " transform="matrix(1, 0, 0, -1, -104, 731)"/>
<path fill-rule="evenodd" fill="rgb(100%, 100%, 100%)" fill-opacity="1" d="M 250.5 27 C 250.5 23.667969 245.5 23.667969 245.5 27 C 245.5 30.332031 250.5 30.332031 250.5 27 Z M 250.5 27 "/>
<path fill-rule="evenodd" fill="rgb(0%, 0%, 0%)" fill-opacity="1" d="M 251 27 C 251 23 245 23 245 27 C 245 31 251 31 251 27 Z M 250 27 C 250 24.332031 246 24.332031 246 27 C 246 29.667969 250 29.667969 250 27 Z M 250 27 "/>
<path fill-rule="evenodd" fill="rgb(0%, 0%, 0%)" fill-opacity="1" d="M 185.800781 27 C 185.800781 24.601562 182.199219 24.601562 182.199219 27 C 182.199219 29.398438 185.800781 29.398438 185.800781 27 Z M 185.800781 27 "/>
<path fill-rule="evenodd" fill="rgb(100%, 100%, 100%)" fill-opacity="1" d="M 186.5 27 C 186.5 23.667969 181.5 23.667969 181.5 27 C 181.5 30.332031 186.5 30.332031 186.5 27 Z M 186.5 27 "/>
<path fill-rule="evenodd" fill="rgb(0%, 0%, 0%)" fill-opacity="1" d="M 187 27 C 187 23 181 23 181 27 C 181 31 187 31 187 27 Z M 186 27 C 186 24.332031 182 24.332031 182 27 C 182 29.667969 186 29.667969 186 27 Z M 186 27 "/>
<path fill="none" stroke-width="0.4" stroke-linecap="butt" stroke-linejoin="round" stroke="rgb(0%, 0%, 0%)" stroke-opacity="1" stroke-miterlimit="10" d="M 253.824219 697.816406 L 250.828125 707.035156 L 242.988281 712.730469 L 233.296875 712.730469 L 225.457031 707.035156 L 222.464844 697.816406 L 225.457031 688.601562 L 233.296875 682.90625 L 242.988281 682.90625 L 250.828125 688.601562 Z M 253.824219 697.816406 " transform="matrix(1, 0, 0, -1, -104, 731)"/>
<path fill-rule="evenodd" fill="rgb(100%, 100%, 100%)" fill-opacity="1" stroke-width="0.4" stroke-linecap="butt" stroke-linejoin="round" stroke="rgb(0%, 0%, 0%)" stroke-opacity="1" stroke-dasharray="1 3" stroke-miterlimit="10" d="M 253.824219 697.816406 C 253.824219 706.476562 246.804688 713.496094 238.144531 713.496094 C 229.484375 713.496094 222.464844 706.476562 222.464844 697.816406 C 222.464844 689.15625 229.484375 682.136719 238.144531 682.136719 C 246.804688 682.136719 253.824219 689.15625 253.824219 697.816406 Z M 253.824219 697.816406 " transform="matrix(1, 0, 0, -1, -104, 731)"/>
<path fill-rule="evenodd" fill="rgb(0%, 0%, 0%)" fill-opacity="1" d="M 122.65625 23.964844 C 122.65625 22.367188 120.257812 22.367188 120.257812 23.964844 C 120.257812 25.566406 122.65625 25.566406 122.65625 23.964844 Z M 122.65625 23.964844 "/>
<path fill-rule="evenodd" fill="rgb(0%, 0%, 0%)" fill-opacity="1" d="M 130.5 18.269531 C 130.5 16.667969 128.097656 16.667969 128.097656 18.269531 C 128.097656 19.871094 130.5 19.871094 130.5 18.269531 Z M 130.5 18.269531 "/>
<path fill-rule="evenodd" fill="rgb(0%, 0%, 0%)" fill-opacity="1" d="M 140.191406 18.269531 C 140.191406 16.667969 137.789062 16.667969 137.789062 18.269531 C 137.789062 19.867188 140.191406 19.867188 140.191406 18.269531 Z M 140.191406 18.269531 "/>
<path fill-rule="evenodd" fill="rgb(0%, 0%, 0%)" fill-opacity="1" d="M 148.03125 23.964844 C 148.03125 22.367188 145.628906 22.367188 145.628906 23.964844 C 145.628906 25.566406 148.03125 25.566406 148.03125 23.964844 Z M 148.03125 23.964844 "/>
<path fill-rule="evenodd" fill="rgb(0%, 0%, 0%)" fill-opacity="1" d="M 151.023438 33.179688 C 151.023438 31.582031 148.625 31.582031 148.625 33.179688 C 148.625 34.78125 151.023438 34.78125 151.023438 33.179688 Z M 151.023438 33.179688 "/>
<path fill-rule="evenodd" fill="rgb(0%, 0%, 0%)" fill-opacity="1" d="M 148.03125 42.398438 C 148.03125 40.796875 145.628906 40.796875 145.628906 42.398438 C 145.628906 43.996094 148.03125 43.996094 148.03125 42.398438 Z M 148.03125 42.398438 "/>
<path fill-rule="evenodd" fill="rgb(0%, 0%, 0%)" fill-opacity="1" d="M 119.664062 33.183594 C 119.664062 31.582031 117.265625 31.582031 117.265625 33.183594 C 117.265625 34.78125 119.664062 34.78125 119.664062 33.183594 Z M 119.664062 33.183594 "/>
<path fill-rule="evenodd" fill="rgb(0%, 0%, 0%)" fill-opacity="1" d="M 122.65625 42.398438 C 122.65625 40.796875 120.257812 40.796875 120.257812 42.398438 C 120.257812 43.996094 122.65625 43.996094 122.65625 42.398438 Z M 122.65625 42.398438 "/>
<path fill-rule="evenodd" fill="rgb(0%, 0%, 0%)" fill-opacity="1" d="M 130.5 48.09375 C 130.5 46.496094 128.097656 46.496094 128.097656 48.09375 C 128.097656 49.695312 130.5 49.695312 130.5 48.09375 Z M 130.5 48.09375 "/>
<path fill-rule="evenodd" fill="rgb(0%, 0%, 0%)" fill-opacity="1" d="M 140.191406 48.09375 C 140.191406 46.496094 137.789062 46.496094 137.789062 48.09375 C 137.789062 49.695312 140.191406 49.695312 140.191406 48.09375 Z M 140.191406 48.09375 "/>
<path fill="none" stroke-width="0.4" stroke-linecap="butt" stroke-linejoin="round" stroke="rgb(0%, 0%, 0%)" stroke-opacity="1" stroke-miterlimit="10" d="M 233.296875 682.90625 L 238.03125 690.621094 " transform="matrix(1, 0, 0, -1, -104, 731)"/>
<path fill="none" stroke-width="0.4" stroke-linecap="butt" stroke-linejoin="round" stroke="rgb(0%, 0%, 0%)" stroke-opacity="1" stroke-miterlimit="10" d="M 238.03125 690.621094 L 242.988281 682.90625 " transform="matrix(1, 0, 0, -1, -104, 731)"/>
<path fill="none" stroke-width="0.4" stroke-linecap="butt" stroke-linejoin="round" stroke="rgb(0%, 0%, 0%)" stroke-opacity="1" stroke-miterlimit="10" d="M 238.03125 690.621094 L 233.117188 696.105469 " transform="matrix(1, 0, 0, -1, -104, 731)"/>
<path fill="none" stroke-width="0.4" stroke-linecap="butt" stroke-linejoin="round" stroke="rgb(0%, 0%, 0%)" stroke-opacity="1" stroke-miterlimit="10" d="M 233.117188 696.105469 L 225.457031 688.601562 " transform="matrix(1, 0, 0, -1, -104, 731)"/>
<path fill="none" stroke-width="0.4" stroke-linecap="butt" stroke-linejoin="round" stroke="rgb(0%, 0%, 0%)" stroke-opacity="1" stroke-miterlimit="10" d="M 233.117188 696.105469 L 222.464844 697.816406 " transform="matrix(1, 0, 0, -1, -104, 731)"/>
<path fill="none" stroke-width="0.4" stroke-linecap="butt" stroke-linejoin="round" stroke="rgb(0%, 0%, 0%)" stroke-opacity="1" stroke-miterlimit="10" d="M 233.117188 696.105469 L 238.722656 698.941406 " transform="matrix(1, 0, 0, -1, -104, 731)"/>
<path fill="none" stroke-width="0.4" stroke-linecap="butt" stroke-linejoin="round" stroke="rgb(0%, 0%, 0%)" stroke-opacity="1" stroke-miterlimit="10" d="M 238.722656 698.941406 L 236.519531 704.171875 " transform="matrix(1, 0, 0, -1, -104, 731)"/>
<path fill="none" stroke-width="0.4" stroke-linecap="butt" stroke-linejoin="round" stroke="rgb(0%, 0%, 0%)" stroke-opacity="1" stroke-miterlimit="10" d="M 236.519531 704.171875 L 242.988281 712.730469 " transform="matrix(1, 0, 0, -1, -104, 731)"/>
<path fill="none" stroke-width="0.4" stroke-linecap="butt" stroke-linejoin="round" stroke="rgb(0%, 0%, 0%)" stroke-opacity="1" stroke-miterlimit="10" d="M 236.519531 704.171875 L 225.457031 707.035156 " transform="matrix(1, 0, 0, -1, -104, 731)"/>
<path fill="none" stroke-width="1.2" stroke-linecap="butt" stroke-linejoin="round" stroke="rgb(0%, 0%, 0%)" stroke-opacity="1" stroke-miterlimit="10" d="M 236.519531 704.171875 L 233.296875 712.730469 " transform="matrix(1, 0, 0, -1, -104, 731)"/>
<path fill="none" stroke-width="0.4" stroke-linecap="butt" stroke-linejoin="round" stroke="rgb(0%, 0%, 0%)" stroke-opacity="1" stroke-miterlimit="10" d="M 238.722656 698.941406 L 245.402344 697.679688 " transform="matrix(1, 0, 0, -1, -104, 731)"/>
<path fill="none" stroke-width="0.4" stroke-linecap="butt" stroke-linejoin="round" stroke="rgb(0%, 0%, 0%)" stroke-opacity="1" stroke-miterlimit="10" d="M 245.402344 697.679688 L 250.828125 707.035156 " transform="matrix(1, 0, 0, -1, -104, 731)"/>
<path fill="none" stroke-width="0.4" stroke-linecap="butt" stroke-linejoin="round" stroke="rgb(0%, 0%, 0%)" stroke-opacity="1" stroke-miterlimit="10" d="M 245.402344 697.679688 L 253.824219 697.816406 " transform="matrix(1, 0, 0, -1, -104, 731)"/>
<path fill="none" stroke-width="0.4" stroke-linecap="butt" stroke-linejoin="round" stroke="rgb(0%, 0%, 0%)" stroke-opacity="1" stroke-miterlimit="10" d="M 245.402344 697.679688 L 250.828125 688.601562 " transform="matrix(1, 0, 0, -1, -104, 731)"/>
<path fill-rule="evenodd" fill="rgb(100%, 100%, 100%)" fill-opacity="1" d="M 133.722656 33.0625 L 135.722656 33.0625 L 135.722656 31.0625 L 133.722656 31.0625 Z M 133.722656 33.0625 "/>
<path fill-rule="evenodd" fill="rgb(0%, 0%, 0%)" fill-opacity="1" d="M 133.523438 33.261719 L 135.921875 33.261719 L 135.921875 30.859375 L 133.523438 30.859375 Z M 133.921875 32.859375 L 135.523438 32.859375 L 135.523438 31.261719 L 133.921875 31.261719 Z M 133.921875 32.859375 "/>
<path fill-rule="evenodd" fill="rgb(100%, 100%, 100%)" fill-opacity="1" d="M 133.03125 41.378906 L 135.03125 41.378906 L 135.03125 39.378906 L 133.03125 39.378906 Z M 133.03125 41.378906 "/>
<path fill-rule="evenodd" fill="rgb(0%, 0%, 0%)" fill-opacity="1" d="M 132.832031 41.578125 L 135.230469 41.578125 L 135.230469 39.179688 L 132.832031 39.179688 Z M 133.230469 41.179688 L 134.832031 41.179688 L 134.832031 39.578125 L 133.230469 39.578125 Z M 133.230469 41.179688 "/>
<path fill-rule="evenodd" fill="rgb(100%, 100%, 100%)" fill-opacity="1" d="M 131.519531 27.832031 L 133.519531 27.832031 L 133.519531 25.832031 L 131.519531 25.832031 Z M 131.519531 27.832031 "/>
<path fill-rule="evenodd" fill="rgb(0%, 0%, 0%)" fill-opacity="1" d="M 131.320312 28.03125 L 133.71875 28.03125 L 133.71875 25.628906 L 131.320312 25.628906 Z M 131.71875 27.628906 L 133.320312 27.628906 L 133.320312 26.03125 L 131.71875 26.03125 Z M 131.71875 27.628906 "/>
<path fill-rule="evenodd" fill="rgb(100%, 100%, 100%)" fill-opacity="1" d="M 142.402344 33.320312 C 142.402344 31.988281 140.402344 31.988281 140.402344 33.320312 C 140.402344 34.652344 142.402344 34.652344 142.402344 33.320312 Z M 142.402344 33.320312 "/>
<path fill-rule="evenodd" fill="rgb(0%, 0%, 0%)" fill-opacity="1" d="M 142.601562 33.320312 C 142.601562 31.71875 140.203125 31.71875 140.203125 33.320312 C 140.203125 34.921875 142.601562 34.921875 142.601562 33.320312 Z M 142.203125 33.320312 C 142.203125 32.253906 140.601562 32.253906 140.601562 33.320312 C 140.601562 34.386719 142.203125 34.386719 142.203125 33.320312 Z M 142.203125 33.320312 "/>
<path fill-rule="evenodd" fill="rgb(100%, 100%, 100%)" fill-opacity="1" d="M 130.117188 34.894531 C 130.117188 33.5625 128.117188 33.5625 128.117188 34.894531 C 128.117188 36.230469 130.117188 36.230469 130.117188 34.894531 Z M 130.117188 34.894531 "/>
<path fill-rule="evenodd" fill="rgb(0%, 0%, 0%)" fill-opacity="1" d="M 130.316406 34.894531 C 130.316406 33.296875 127.914062 33.296875 127.914062 34.894531 C 127.914062 36.496094 130.316406 36.496094 130.316406 34.894531 Z M 129.914062 34.894531 C 129.914062 33.828125 128.316406 33.828125 128.316406 34.894531 C 128.316406 35.960938 129.914062 35.960938 129.914062 34.894531 Z M 129.914062 34.894531 "/>
<path fill="none" stroke-width="0.4" stroke-linecap="butt" stroke-linejoin="round" stroke="rgb(0%, 0%, 0%)" stroke-opacity="1" stroke-miterlimit="10" d="M 303.679688 704 L 300.6875 713.214844 L 292.84375 718.914062 L 283.15625 718.914062 L 275.3125 713.214844 L 272.320312 704 L 275.3125 694.785156 L 283.15625 689.085938 L 292.84375 689.085938 L 300.6875 694.785156 Z M 303.679688 704 " transform="matrix(1, 0, 0, -1, -104, 731)"/>
<path fill-rule="evenodd" fill="rgb(100%, 100%, 100%)" fill-opacity="1" stroke-width="0.4" stroke-linecap="butt" stroke-linejoin="round" stroke="rgb(0%, 0%, 0%)" stroke-opacity="1" stroke-dasharray="1 3" stroke-miterlimit="10" d="M 303.679688 704 C 303.679688 712.660156 296.660156 719.679688 288 719.679688 C 279.339844 719.679688 272.320312 712.660156 272.320312 704 C 272.320312 695.339844 279.339844 688.320312 288 688.320312 C 296.660156 688.320312 303.679688 695.339844 303.679688 704 Z M 303.679688 704 " transform="matrix(1, 0, 0, -1, -104, 731)"/>
<path fill-rule="evenodd" fill="rgb(0%, 0%, 0%)" fill-opacity="1" d="M 172.515625 17.785156 C 172.515625 16.183594 170.113281 16.183594 170.113281 17.785156 C 170.113281 19.382812 172.515625 19.382812 172.515625 17.785156 Z M 172.515625 17.785156 "/>
<path fill-rule="evenodd" fill="rgb(0%, 0%, 0%)" fill-opacity="1" d="M 180.355469 12.085938 C 180.355469 10.488281 177.953125 10.488281 177.953125 12.085938 C 177.953125 13.6875 180.355469 13.6875 180.355469 12.085938 Z M 180.355469 12.085938 "/>
<path fill-rule="evenodd" fill="rgb(0%, 0%, 0%)" fill-opacity="1" d="M 190.046875 12.085938 C 190.046875 10.488281 187.644531 10.488281 187.644531 12.085938 C 187.644531 13.6875 190.046875 13.6875 190.046875 12.085938 Z M 190.046875 12.085938 "/>
<path fill-rule="evenodd" fill="rgb(0%, 0%, 0%)" fill-opacity="1" d="M 197.886719 17.785156 C 197.886719 16.183594 195.484375 16.183594 195.484375 17.785156 C 195.484375 19.382812 197.886719 19.382812 197.886719 17.785156 Z M 197.886719 17.785156 "/>
<path fill-rule="evenodd" fill="rgb(0%, 0%, 0%)" fill-opacity="1" d="M 200.878906 27 C 200.878906 25.398438 198.480469 25.398438 198.480469 27 C 198.480469 28.597656 200.878906 28.597656 200.878906 27 Z M 200.878906 27 "/>
<path fill-rule="evenodd" fill="rgb(0%, 0%, 0%)" fill-opacity="1" d="M 197.886719 36.214844 C 197.886719 34.617188 195.484375 34.617188 195.484375 36.214844 C 195.484375 37.816406 197.886719 37.816406 197.886719 36.214844 Z M 197.886719 36.214844 "/>
<path fill-rule="evenodd" fill="rgb(0%, 0%, 0%)" fill-opacity="1" d="M 169.519531 27 C 169.519531 25.402344 167.121094 25.402344 167.121094 27 C 167.121094 28.601562 169.519531 28.601562 169.519531 27 Z M 169.519531 27 "/>
<path fill-rule="evenodd" fill="rgb(0%, 0%, 0%)" fill-opacity="1" d="M 172.515625 36.214844 C 172.515625 34.617188 170.113281 34.617188 170.113281 36.214844 C 170.113281 37.816406 172.515625 37.816406 172.515625 36.214844 Z M 172.515625 36.214844 "/>
<path fill-rule="evenodd" fill="rgb(0%, 0%, 0%)" fill-opacity="1" d="M 180.355469 41.914062 C 180.355469 40.3125 177.953125 40.3125 177.953125 41.914062 C 177.953125 43.511719 180.355469 43.511719 180.355469 41.914062 Z M 180.355469 41.914062 "/>
<path fill-rule="evenodd" fill="rgb(0%, 0%, 0%)" fill-opacity="1" d="M 190.046875 41.914062 C 190.046875 40.3125 187.644531 40.3125 187.644531 41.914062 C 187.644531 43.511719 190.046875 43.511719 190.046875 41.914062 Z M 190.046875 41.914062 "/>
<path fill="none" stroke-width="0.4" stroke-linecap="butt" stroke-linejoin="round" stroke="rgb(0%, 0%, 0%)" stroke-opacity="1" stroke-miterlimit="10" d="M 283.15625 689.085938 L 287.886719 696.804688 " transform="matrix(1, 0, 0, -1, -104, 731)"/>
<path fill="none" stroke-width="0.4" stroke-linecap="butt" stroke-linejoin="round" stroke="rgb(0%, 0%, 0%)" stroke-opacity="1" stroke-miterlimit="10" d="M 287.886719 696.804688 L 292.84375 689.085938 " transform="matrix(1, 0, 0, -1, -104, 731)"/>
<path fill="none" stroke-width="0.4" stroke-linecap="butt" stroke-linejoin="round" stroke="rgb(0%, 0%, 0%)" stroke-opacity="1" stroke-miterlimit="10" d="M 287.886719 696.804688 L 282.972656 702.285156 " transform="matrix(1, 0, 0, -1, -104, 731)"/>
<path fill="none" stroke-width="0.4" stroke-linecap="butt" stroke-linejoin="round" stroke="rgb(0%, 0%, 0%)" stroke-opacity="1" stroke-miterlimit="10" d="M 282.972656 702.285156 L 275.3125 694.785156 " transform="matrix(1, 0, 0, -1, -104, 731)"/>
<path fill="none" stroke-width="0.4" stroke-linecap="butt" stroke-linejoin="round" stroke="rgb(0%, 0%, 0%)" stroke-opacity="1" stroke-miterlimit="10" d="M 282.972656 702.285156 L 272.320312 704 " transform="matrix(1, 0, 0, -1, -104, 731)"/>
<path fill="none" stroke-width="0.4" stroke-linecap="butt" stroke-linejoin="round" stroke="rgb(0%, 0%, 0%)" stroke-opacity="1" stroke-miterlimit="10" d="M 282.972656 702.285156 L 288.578125 705.121094 " transform="matrix(1, 0, 0, -1, -104, 731)"/>
<path fill="none" stroke-width="0.4" stroke-linecap="butt" stroke-linejoin="round" stroke="rgb(0%, 0%, 0%)" stroke-opacity="1" stroke-miterlimit="10" d="M 288.578125 705.121094 L 286.375 710.351562 " transform="matrix(1, 0, 0, -1, -104, 731)"/>
<path fill="none" stroke-width="0.4" stroke-linecap="butt" stroke-linejoin="round" stroke="rgb(0%, 0%, 0%)" stroke-opacity="1" stroke-miterlimit="10" d="M 286.375 710.351562 L 292.84375 718.914062 " transform="matrix(1, 0, 0, -1, -104, 731)"/>
<path fill="none" stroke-width="0.4" stroke-linecap="butt" stroke-linejoin="round" stroke="rgb(0%, 0%, 0%)" stroke-opacity="1" stroke-miterlimit="10" d="M 286.375 710.351562 L 275.3125 713.214844 " transform="matrix(1, 0, 0, -1, -104, 731)"/>
<path fill="none" stroke-width="1.2" stroke-linecap="butt" stroke-linejoin="round" stroke="rgb(0%, 0%, 0%)" stroke-opacity="1" stroke-miterlimit="10" d="M 286.375 710.351562 L 283.15625 718.914062 " transform="matrix(1, 0, 0, -1, -104, 731)"/>
<path fill="none" stroke-width="0.4" stroke-linecap="butt" stroke-linejoin="round" stroke="rgb(0%, 0%, 0%)" stroke-opacity="1" stroke-miterlimit="10" d="M 288.578125 705.121094 L 295.257812 703.863281 " transform="matrix(1, 0, 0, -1, -104, 731)"/>
<path fill="none" stroke-width="0.4" stroke-linecap="butt" stroke-linejoin="round" stroke="rgb(0%, 0%, 0%)" stroke-opacity="1" stroke-miterlimit="10" d="M 295.257812 703.863281 L 300.6875 713.214844 " transform="matrix(1, 0, 0, -1, -104, 731)"/>
<path fill="none" stroke-width="0.4" stroke-linecap="butt" stroke-linejoin="round" stroke="rgb(0%, 0%, 0%)" stroke-opacity="1" stroke-miterlimit="10" d="M 295.257812 703.863281 L 303.679688 704 " transform="matrix(1, 0, 0, -1, -104, 731)"/>
<path fill="none" stroke-width="0.4" stroke-linecap="butt" stroke-linejoin="round" stroke="rgb(0%, 0%, 0%)" stroke-opacity="1" stroke-miterlimit="10" d="M 295.257812 703.863281 L 300.6875 694.785156 " transform="matrix(1, 0, 0, -1, -104, 731)"/>
<path fill-rule="evenodd" fill="rgb(100%, 100%, 100%)" fill-opacity="1" d="M 183.578125 26.878906 L 185.578125 26.878906 L 185.578125 24.878906 L 183.578125 24.878906 Z M 183.578125 26.878906 "/>
<path fill-rule="evenodd" fill="rgb(0%, 0%, 0%)" fill-opacity="1" d="M 183.378906 27.078125 L 185.78125 27.078125 L 185.78125 24.679688 L 183.378906 24.679688 Z M 183.78125 26.679688 L 185.378906 26.679688 L 185.378906 25.078125 L 183.78125 25.078125 Z M 183.78125 26.679688 "/>
<path fill-rule="evenodd" fill="rgb(100%, 100%, 100%)" fill-opacity="1" d="M 182.886719 35.195312 L 184.886719 35.195312 L 184.886719 33.195312 L 182.886719 33.195312 Z M 182.886719 35.195312 "/>
<path fill-rule="evenodd" fill="rgb(0%, 0%, 0%)" fill-opacity="1" d="M 182.6875 35.398438 L 185.085938 35.398438 L 185.085938 32.996094 L 182.6875 32.996094 Z M 183.085938 34.996094 L 184.6875 34.996094 L 184.6875 33.398438 L 183.085938 33.398438 Z M 183.085938 34.996094 "/>
<path fill-rule="evenodd" fill="rgb(100%, 100%, 100%)" fill-opacity="1" d="M 181.375 21.648438 L 183.375 21.648438 L 183.375 19.648438 L 181.375 19.648438 Z M 181.375 21.648438 "/>
<path fill-rule="evenodd" fill="rgb(0%, 0%, 0%)" fill-opacity="1" d="M 181.175781 21.847656 L 183.574219 21.847656 L 183.574219 19.449219 L 181.175781 19.449219 Z M 181.574219 21.449219 L 183.175781 21.449219 L 183.175781 19.847656 L 181.574219 19.847656 Z M 181.574219 21.449219 "/>
<path fill-rule="evenodd" fill="rgb(100%, 100%, 100%)" fill-opacity="1" d="M 192.257812 27.136719 C 192.257812 25.804688 190.257812 25.804688 190.257812 27.136719 C 190.257812 28.472656 192.257812 28.472656 192.257812 27.136719 Z M 192.257812 27.136719 "/>
<path fill-rule="evenodd" fill="rgb(0%, 0%, 0%)" fill-opacity="1" d="M 192.460938 27.136719 C 192.460938 25.539062 190.058594 25.539062 190.058594 27.136719 C 190.058594 28.738281 192.460938 28.738281 192.460938 27.136719 Z M 192.058594 27.136719 C 192.058594 26.070312 190.460938 26.070312 190.460938 27.136719 C 190.460938 28.203125 192.058594 28.203125 192.058594 27.136719 Z M 192.058594 27.136719 "/>
<path fill-rule="evenodd" fill="rgb(100%, 100%, 100%)" fill-opacity="1" d="M 179.972656 28.714844 C 179.972656 27.378906 177.972656 27.378906 177.972656 28.714844 C 177.972656 30.046875 179.972656 30.046875 179.972656 28.714844 Z M 179.972656 28.714844 "/>
<path fill-rule="evenodd" fill="rgb(0%, 0%, 0%)" fill-opacity="1" d="M 180.171875 28.714844 C 180.171875 27.113281 177.769531 27.113281 177.769531 28.714844 C 177.769531 30.3125 180.171875 30.3125 180.171875 28.714844 Z M 179.769531 28.714844 C 179.769531 27.648438 178.171875 27.648438 178.171875 28.714844 C 178.171875 29.78125 179.769531 29.78125 179.769531 28.714844 Z M 179.769531 28.714844 "/>
<path fill="none" stroke-width="0.4" stroke-linecap="butt" stroke-linejoin="round" stroke="rgb(0%, 0%, 0%)" stroke-opacity="1" stroke-miterlimit="10" d="M 336.320312 704 L 339.3125 713.214844 L 347.15625 718.914062 L 356.84375 718.914062 L 364.6875 713.214844 L 367.679688 704 L 364.6875 694.785156 L 356.84375 689.085938 L 347.15625 689.085938 L 339.3125 694.785156 Z M 336.320312 704 " transform="matrix(1, 0, 0, -1, -104, 731)"/>
<path fill-rule="evenodd" fill="rgb(100%, 100%, 100%)" fill-opacity="1" stroke-width="0.4" stroke-linecap="butt" stroke-linejoin="round" stroke="rgb(0%, 0%, 0%)" stroke-opacity="1" stroke-dasharray="1 3" stroke-miterlimit="10" d="M 336.320312 704 C 336.320312 712.660156 343.339844 719.679688 352 719.679688 C 360.660156 719.679688 367.679688 712.660156 367.679688 704 C 367.679688 695.339844 360.660156 688.320312 352 688.320312 C 343.339844 688.320312 336.320312 695.339844 336.320312 704 Z M 336.320312 704 " transform="matrix(1, 0, 0, -1, -104, 731)"/>
<path fill-rule="evenodd" fill="rgb(0%, 0%, 0%)" fill-opacity="1" d="M 261.886719 17.785156 C 261.886719 16.183594 259.484375 16.183594 259.484375 17.785156 C 259.484375 19.382812 261.886719 19.382812 261.886719 17.785156 Z M 261.886719 17.785156 "/>
<path fill-rule="evenodd" fill="rgb(0%, 0%, 0%)" fill-opacity="1" d="M 254.046875 12.085938 C 254.046875 10.488281 251.644531 10.488281 251.644531 12.085938 C 251.644531 13.6875 254.046875 13.6875 254.046875 12.085938 Z M 254.046875 12.085938 "/>
<path fill-rule="evenodd" fill="rgb(0%, 0%, 0%)" fill-opacity="1" d="M 244.355469 12.085938 C 244.355469 10.488281 241.953125 10.488281 241.953125 12.085938 C 241.953125 13.6875 244.355469 13.6875 244.355469 12.085938 Z M 244.355469 12.085938 "/>
<path fill-rule="evenodd" fill="rgb(0%, 0%, 0%)" fill-opacity="1" d="M 236.515625 17.785156 C 236.515625 16.183594 234.113281 16.183594 234.113281 17.785156 C 234.113281 19.382812 236.515625 19.382812 236.515625 17.785156 Z M 236.515625 17.785156 "/>
<path fill-rule="evenodd" fill="rgb(0%, 0%, 0%)" fill-opacity="1" d="M 233.519531 27 C 233.519531 25.398438 231.121094 25.398438 231.121094 27 C 231.121094 28.597656 233.519531 28.597656 233.519531 27 Z M 233.519531 27 "/>
<path fill-rule="evenodd" fill="rgb(0%, 0%, 0%)" fill-opacity="1" d="M 236.515625 36.214844 C 236.515625 34.617188 234.113281 34.617188 234.113281 36.214844 C 234.113281 37.816406 236.515625 37.816406 236.515625 36.214844 Z M 236.515625 36.214844 "/>
<path fill-rule="evenodd" fill="rgb(0%, 0%, 0%)" fill-opacity="1" d="M 264.878906 27 C 264.878906 25.402344 262.480469 25.402344 262.480469 27 C 262.480469 28.601562 264.878906 28.601562 264.878906 27 Z M 264.878906 27 "/>
<path fill-rule="evenodd" fill="rgb(0%, 0%, 0%)" fill-opacity="1" d="M 261.886719 36.214844 C 261.886719 34.617188 259.484375 34.617188 259.484375 36.214844 C 259.484375 37.816406 261.886719 37.816406 261.886719 36.214844 Z M 261.886719 36.214844 "/>
<path fill-rule="evenodd" fill="rgb(0%, 0%, 0%)" fill-opacity="1" d="M 254.046875 41.914062 C 254.046875 40.3125 251.644531 40.3125 251.644531 41.914062 C 251.644531 43.511719 254.046875 43.511719 254.046875 41.914062 Z M 254.046875 41.914062 "/>
<path fill-rule="evenodd" fill="rgb(0%, 0%, 0%)" fill-opacity="1" d="M 244.355469 41.914062 C 244.355469 40.3125 241.953125 40.3125 241.953125 41.914062 C 241.953125 43.511719 244.355469 43.511719 244.355469 41.914062 Z M 244.355469 41.914062 "/>
<path fill="none" stroke-width="0.4" stroke-linecap="butt" stroke-linejoin="round" stroke="rgb(0%, 0%, 0%)" stroke-opacity="1" stroke-miterlimit="10" d="M 356.84375 689.085938 L 352.113281 696.804688 " transform="matrix(1, 0, 0, -1, -104, 731)"/>
<path fill="none" stroke-width="0.4" stroke-linecap="butt" stroke-linejoin="round" stroke="rgb(0%, 0%, 0%)" stroke-opacity="1" stroke-miterlimit="10" d="M 352.113281 696.804688 L 347.15625 689.085938 " transform="matrix(1, 0, 0, -1, -104, 731)"/>
<path fill="none" stroke-width="0.4" stroke-linecap="butt" stroke-linejoin="round" stroke="rgb(0%, 0%, 0%)" stroke-opacity="1" stroke-miterlimit="10" d="M 352.113281 696.804688 L 357.027344 702.285156 " transform="matrix(1, 0, 0, -1, -104, 731)"/>
<path fill="none" stroke-width="0.4" stroke-linecap="butt" stroke-linejoin="round" stroke="rgb(0%, 0%, 0%)" stroke-opacity="1" stroke-miterlimit="10" d="M 357.027344 702.285156 L 364.6875 694.785156 " transform="matrix(1, 0, 0, -1, -104, 731)"/>
<path fill="none" stroke-width="0.4" stroke-linecap="butt" stroke-linejoin="round" stroke="rgb(0%, 0%, 0%)" stroke-opacity="1" stroke-miterlimit="10" d="M 357.027344 702.285156 L 367.679688 704 " transform="matrix(1, 0, 0, -1, -104, 731)"/>
<path fill="none" stroke-width="0.4" stroke-linecap="butt" stroke-linejoin="round" stroke="rgb(0%, 0%, 0%)" stroke-opacity="1" stroke-miterlimit="10" d="M 357.027344 702.285156 L 351.421875 705.121094 " transform="matrix(1, 0, 0, -1, -104, 731)"/>
<path fill="none" stroke-width="0.4" stroke-linecap="butt" stroke-linejoin="round" stroke="rgb(0%, 0%, 0%)" stroke-opacity="1" stroke-miterlimit="10" d="M 351.421875 705.121094 L 353.625 710.351562 " transform="matrix(1, 0, 0, -1, -104, 731)"/>
<path fill="none" stroke-width="0.4" stroke-linecap="butt" stroke-linejoin="round" stroke="rgb(0%, 0%, 0%)" stroke-opacity="1" stroke-miterlimit="10" d="M 353.625 710.351562 L 347.15625 718.914062 " transform="matrix(1, 0, 0, -1, -104, 731)"/>
<path fill="none" stroke-width="0.4" stroke-linecap="butt" stroke-linejoin="round" stroke="rgb(0%, 0%, 0%)" stroke-opacity="1" stroke-miterlimit="10" d="M 353.625 710.351562 L 364.6875 713.214844 " transform="matrix(1, 0, 0, -1, -104, 731)"/>
<path fill="none" stroke-width="1.2" stroke-linecap="butt" stroke-linejoin="round" stroke="rgb(0%, 0%, 0%)" stroke-opacity="1" stroke-miterlimit="10" d="M 353.625 710.351562 L 356.84375 718.914062 " transform="matrix(1, 0, 0, -1, -104, 731)"/>
<path fill="none" stroke-width="0.4" stroke-linecap="butt" stroke-linejoin="round" stroke="rgb(0%, 0%, 0%)" stroke-opacity="1" stroke-miterlimit="10" d="M 351.421875 705.121094 L 344.742188 703.863281 " transform="matrix(1, 0, 0, -1, -104, 731)"/>
<path fill="none" stroke-width="0.4" stroke-linecap="butt" stroke-linejoin="round" stroke="rgb(0%, 0%, 0%)" stroke-opacity="1" stroke-miterlimit="10" d="M 344.742188 703.863281 L 339.3125 713.214844 " transform="matrix(1, 0, 0, -1, -104, 731)"/>
<path fill="none" stroke-width="0.4" stroke-linecap="butt" stroke-linejoin="round" stroke="rgb(0%, 0%, 0%)" stroke-opacity="1" stroke-miterlimit="10" d="M 344.742188 703.863281 L 336.320312 704 " transform="matrix(1, 0, 0, -1, -104, 731)"/>
<path fill="none" stroke-width="0.4" stroke-linecap="butt" stroke-linejoin="round" stroke="rgb(0%, 0%, 0%)" stroke-opacity="1" stroke-miterlimit="10" d="M 344.742188 703.863281 L 339.3125 694.785156 " transform="matrix(1, 0, 0, -1, -104, 731)"/>
<path fill-rule="evenodd" fill="rgb(100%, 100%, 100%)" fill-opacity="1" d="M 246.421875 26.878906 L 248.421875 26.878906 L 248.421875 24.878906 L 246.421875 24.878906 Z M 246.421875 26.878906 "/>
<path fill-rule="evenodd" fill="rgb(0%, 0%, 0%)" fill-opacity="1" d="M 246.21875 27.078125 L 248.621094 27.078125 L 248.621094 24.679688 L 246.21875 24.679688 Z M 246.621094 26.679688 L 248.21875 26.679688 L 248.21875 25.078125 L 246.621094 25.078125 Z M 246.621094 26.679688 "/>
<path fill-rule="evenodd" fill="rgb(100%, 100%, 100%)" fill-opacity="1" d="M 247.113281 35.195312 L 249.113281 35.195312 L 249.113281 33.195312 L 247.113281 33.195312 Z M 247.113281 35.195312 "/>
<path fill-rule="evenodd" fill="rgb(0%, 0%, 0%)" fill-opacity="1" d="M 246.914062 35.398438 L 249.3125 35.398438 L 249.3125 32.996094 L 246.914062 32.996094 Z M 247.3125 34.996094 L 248.914062 34.996094 L 248.914062 33.398438 L 247.3125 33.398438 Z M 247.3125 34.996094 "/>
<path fill-rule="evenodd" fill="rgb(100%, 100%, 100%)" fill-opacity="1" d="M 248.625 21.648438 L 250.625 21.648438 L 250.625 19.648438 L 248.625 19.648438 Z M 248.625 21.648438 "/>
<path fill-rule="evenodd" fill="rgb(0%, 0%, 0%)" fill-opacity="1" d="M 248.425781 21.847656 L 250.824219 21.847656 L 250.824219 19.449219 L 248.425781 19.449219 Z M 248.824219 21.449219 L 250.425781 21.449219 L 250.425781 19.847656 L 248.824219 19.847656 Z M 248.824219 21.449219 "/>
<path fill-rule="evenodd" fill="rgb(100%, 100%, 100%)" fill-opacity="1" d="M 241.742188 27.136719 C 241.742188 25.804688 239.742188 25.804688 239.742188 27.136719 C 239.742188 28.472656 241.742188 28.472656 241.742188 27.136719 Z M 241.742188 27.136719 "/>
<path fill-rule="evenodd" fill="rgb(0%, 0%, 0%)" fill-opacity="1" d="M 241.941406 27.136719 C 241.941406 25.539062 239.539062 25.539062 239.539062 27.136719 C 239.539062 28.738281 241.941406 28.738281 241.941406 27.136719 Z M 241.539062 27.136719 C 241.539062 26.070312 239.941406 26.070312 239.941406 27.136719 C 239.941406 28.203125 241.539062 28.203125 241.539062 27.136719 Z M 241.539062 27.136719 "/>
<path fill-rule="evenodd" fill="rgb(100%, 100%, 100%)" fill-opacity="1" d="M 254.027344 28.714844 C 254.027344 27.378906 252.027344 27.378906 252.027344 28.714844 C 252.027344 30.046875 254.027344 30.046875 254.027344 28.714844 Z M 254.027344 28.714844 "/>
<path fill-rule="evenodd" fill="rgb(0%, 0%, 0%)" fill-opacity="1" d="M 254.230469 28.714844 C 254.230469 27.113281 251.828125 27.113281 251.828125 28.714844 C 251.828125 30.3125 254.230469 30.3125 254.230469 28.714844 Z M 253.828125 28.714844 C 253.828125 27.648438 252.230469 27.648438 252.230469 28.714844 C 252.230469 29.78125 253.828125 29.78125 253.828125 28.714844 Z M 253.828125 28.714844 "/>
<path fill="none" stroke-width="0.4" stroke-linecap="butt" stroke-linejoin="round" stroke="rgb(0%, 0%, 0%)" stroke-opacity="1" stroke-miterlimit="10" d="M 249.308594 713.722656 C 257.167969 723.367188 266.007812 724.4375 275.832031 716.9375 " transform="matrix(1, 0, 0, -1, -104, 731)"/>
<path fill-rule="evenodd" fill="rgb(0%, 0%, 0%)" fill-opacity="1" stroke-width="0.4" stroke-linecap="butt" stroke-linejoin="round" stroke="rgb(0%, 0%, 0%)" stroke-opacity="1" stroke-miterlimit="10" d="M 275.832031 716.9375 L 274.054688 719.550781 L 272.84375 717.964844 Z M 275.832031 716.9375 " transform="matrix(1, 0, 0, -1, -104, 731)"/>
<path fill="none" stroke-width="0.4" stroke-linecap="butt" stroke-linejoin="round" stroke="rgb(0%, 0%, 0%)" stroke-opacity="1" stroke-miterlimit="10" d="M 249.175781 682.105469 C 271.550781 666.4375 292.046875 670.652344 300.886719 673.921875 C 309.726562 677.191406 306.914062 679.515625 303.8125 679.671875 C 300.707031 679.828125 297.3125 677.816406 302.164062 674.339844 C 307.015625 670.863281 320.109375 665.914062 341.085938 688.425781 " transform="matrix(1, 0, 0, -1, -104, 731)"/>
<path fill-rule="evenodd" fill="rgb(0%, 0%, 0%)" fill-opacity="1" stroke-width="0.4" stroke-linecap="butt" stroke-linejoin="round" stroke="rgb(0%, 0%, 0%)" stroke-opacity="1" stroke-miterlimit="10" d="M 341.085938 688.425781 L 338.308594 686.914062 L 339.773438 685.550781 Z M 341.085938 688.425781 " transform="matrix(1, 0, 0, -1, -104, 731)"/>
<path fill-rule="evenodd" fill="rgb(27.1%, 52.9%, 72.9%)" fill-opacity="1" d="M 248.625 21.648438 L 250.625 21.648438 L 250.625 19.648438 L 248.625 19.648438 Z M 248.625 21.648438 "/>
<path fill-rule="evenodd" fill="rgb(0%, 0%, 0%)" fill-opacity="1" d="M 248.425781 21.847656 L 250.824219 21.847656 L 250.824219 19.449219 L 248.425781 19.449219 Z M 248.824219 21.449219 L 250.425781 21.449219 L 250.425781 19.847656 L 248.824219 19.847656 Z M 248.824219 21.449219 "/>
<path fill-rule="evenodd" fill="rgb(100%, 0%, 0%)" fill-opacity="1" d="M 183.578125 26.878906 L 185.578125 26.878906 L 185.578125 24.878906 L 183.578125 24.878906 Z M 183.578125 26.878906 "/>
<path fill-rule="evenodd" fill="rgb(0%, 0%, 0%)" fill-opacity="1" d="M 183.378906 27.078125 L 185.78125 27.078125 L 185.78125 24.679688 L 183.378906 24.679688 Z M 183.78125 26.679688 L 185.378906 26.679688 L 185.378906 25.078125 L 183.78125 25.078125 Z M 183.78125 26.679688 "/>
<path fill-rule="evenodd" fill="rgb(0%, 100%, 0%)" fill-opacity="1" d="M 182.886719 35.195312 L 184.886719 35.195312 L 184.886719 33.195312 L 182.886719 33.195312 Z M 182.886719 35.195312 "/>
<path fill-rule="evenodd" fill="rgb(0%, 0%, 0%)" fill-opacity="1" d="M 182.6875 35.394531 L 185.085938 35.394531 L 185.085938 32.996094 L 182.6875 32.996094 Z M 183.085938 34.996094 L 184.6875 34.996094 L 184.6875 33.394531 L 183.085938 33.394531 Z M 183.085938 34.996094 "/>
<path fill-rule="evenodd" fill="rgb(0%, 100%, 0%)" fill-opacity="1" d="M 247.113281 35.195312 L 249.113281 35.195312 L 249.113281 33.195312 L 247.113281 33.195312 Z M 247.113281 35.195312 "/>
<path fill-rule="evenodd" fill="rgb(0%, 0%, 0%)" fill-opacity="1" d="M 246.914062 35.394531 L 249.3125 35.394531 L 249.3125 32.996094 L 246.914062 32.996094 Z M 247.3125 34.996094 L 248.914062 34.996094 L 248.914062 33.394531 L 247.3125 33.394531 Z M 247.3125 34.996094 "/>
<path fill-rule="evenodd" fill="rgb(100%, 0%, 0%)" fill-opacity="1" d="M 246.421875 26.878906 L 248.421875 26.878906 L 248.421875 24.878906 L 246.421875 24.878906 Z M 246.421875 26.878906 "/>
<path fill-rule="evenodd" fill="rgb(0%, 0%, 0%)" fill-opacity="1" d="M 246.222656 27.078125 L 248.621094 27.078125 L 248.621094 24.675781 L 246.222656 24.675781 Z M 246.621094 26.675781 L 248.222656 26.675781 L 248.222656 25.078125 L 246.621094 25.078125 Z M 246.621094 26.675781 "/>
<path fill-rule="evenodd" fill="rgb(27.1%, 52.9%, 72.9%)" fill-opacity="1" d="M 181.375 21.648438 L 183.375 21.648438 L 183.375 19.648438 L 181.375 19.648438 Z M 181.375 21.648438 "/>
<path fill-rule="evenodd" fill="rgb(0%, 0%, 0%)" fill-opacity="1" d="M 181.175781 21.847656 L 183.574219 21.847656 L 183.574219 19.449219 L 181.175781 19.449219 Z M 181.574219 21.449219 L 183.175781 21.449219 L 183.175781 19.847656 L 181.574219 19.847656 Z M 181.574219 21.449219 "/>
<path fill="none" stroke-width="1.2" stroke-linecap="butt" stroke-linejoin="round" stroke="rgb(94.9%, 58%, 0%)" stroke-opacity="1" stroke-dasharray="4" stroke-miterlimit="10" d="M 344.742188 703.863281 C 328.246094 714.621094 311.753906 714.621094 295.257812 703.863281 " transform="matrix(1, 0, 0, -1, -104, 731)"/>
<path fill-rule="evenodd" fill="rgb(100%, 100%, 100%)" fill-opacity="1" d="M 192.261719 27.136719 C 192.261719 25.804688 190.261719 25.804688 190.261719 27.136719 C 190.261719 28.472656 192.261719 28.472656 192.261719 27.136719 Z M 192.261719 27.136719 "/>
<path fill-rule="evenodd" fill="rgb(0%, 0%, 0%)" fill-opacity="1" d="M 192.460938 27.136719 C 192.460938 25.539062 190.058594 25.539062 190.058594 27.136719 C 190.058594 28.738281 192.460938 28.738281 192.460938 27.136719 Z M 192.058594 27.136719 C 192.058594 26.070312 190.460938 26.070312 190.460938 27.136719 C 190.460938 28.203125 192.058594 28.203125 192.058594 27.136719 Z M 192.058594 27.136719 "/>
<path fill-rule="evenodd" fill="rgb(100%, 100%, 100%)" fill-opacity="1" d="M 241.742188 27.136719 C 241.742188 25.804688 239.742188 25.804688 239.742188 27.136719 C 239.742188 28.46875 241.742188 28.46875 241.742188 27.136719 Z M 241.742188 27.136719 "/>
<path fill-rule="evenodd" fill="rgb(0%, 0%, 0%)" fill-opacity="1" d="M 241.941406 27.136719 C 241.941406 25.535156 239.539062 25.535156 239.539062 27.136719 C 239.539062 28.738281 241.941406 28.738281 241.941406 27.136719 Z M 241.539062 27.136719 C 241.539062 26.070312 239.941406 26.070312 239.941406 27.136719 C 239.941406 28.203125 241.539062 28.203125 241.539062 27.136719 Z M 241.539062 27.136719 "/>
<path fill="none" stroke-width="1.2" stroke-linecap="butt" stroke-linejoin="round" stroke="rgb(94.9%, 58%, 0%)" stroke-opacity="1" stroke-dasharray="4" stroke-miterlimit="10" d="M 357.027344 702.285156 C 352 704 344 692 334.667969 686 C 325.332031 680 314.667969 680 305.332031 686 C 296 692 288 704 282.972656 702.285156 " transform="matrix(1, 0, 0, -1, -104, 731)"/>
<path fill-rule="evenodd" fill="rgb(100%, 100%, 100%)" fill-opacity="1" d="M 254.027344 28.714844 C 254.027344 27.378906 252.027344 27.378906 252.027344 28.714844 C 252.027344 30.046875 254.027344 30.046875 254.027344 28.714844 Z M 254.027344 28.714844 "/>
<path fill-rule="evenodd" fill="rgb(0%, 0%, 0%)" fill-opacity="1" d="M 254.230469 28.714844 C 254.230469 27.113281 251.828125 27.113281 251.828125 28.714844 C 251.828125 30.3125 254.230469 30.3125 254.230469 28.714844 Z M 253.828125 28.714844 C 253.828125 27.644531 252.230469 27.644531 252.230469 28.714844 C 252.230469 29.78125 253.828125 29.78125 253.828125 28.714844 Z M 253.828125 28.714844 "/>
<path fill-rule="evenodd" fill="rgb(100%, 100%, 100%)" fill-opacity="1" d="M 179.972656 28.714844 C 179.972656 27.378906 177.972656 27.378906 177.972656 28.714844 C 177.972656 30.046875 179.972656 30.046875 179.972656 28.714844 Z M 179.972656 28.714844 "/>
<path fill-rule="evenodd" fill="rgb(0%, 0%, 0%)" fill-opacity="1" d="M 180.171875 28.714844 C 180.171875 27.113281 177.773438 27.113281 177.773438 28.714844 C 177.773438 30.3125 180.171875 30.3125 180.171875 28.714844 Z M 179.773438 28.714844 C 179.773438 27.644531 178.171875 27.644531 178.171875 28.714844 C 178.171875 29.78125 179.773438 29.78125 179.773438 28.714844 Z M 179.773438 28.714844 "/>
</svg>
